<?xml version="1.0" encoding="UTF-8" standalone="no"?>
<!-- Created with Inkscape (http://www.inkscape.org/) -->

<svg
   viewBox="0 0 32 32"
   version="1.1"
   id="svg1"
   xml:space="preserve"
   inkscape:version="1.4 (e7c3feb1, 2024-10-09)"
   sodipodi:docname="bus-icon.svg"
   xmlns:inkscape="http://www.inkscape.org/namespaces/inkscape"
   xmlns:sodipodi="http://sodipodi.sourceforge.net/DTD/sodipodi-0.dtd"
   xmlns="http://www.w3.org/2000/svg"
   xmlns:svg="http://www.w3.org/2000/svg"><sodipodi:namedview
     id="namedview1"
     pagecolor="#ffffff"
     bordercolor="#000000"
     borderopacity="0.25"
     inkscape:showpageshadow="2"
     inkscape:pageopacity="0.0"
     inkscape:pagecheckerboard="0"
     inkscape:deskcolor="#d1d1d1"
     inkscape:document-units="mm"
     inkscape:zoom="3.4764417"
     inkscape:cx="13.951047"
     inkscape:cy="77.37797"
     inkscape:window-width="1792"
     inkscape:window-height="1067"
     inkscape:window-x="0"
     inkscape:window-y="25"
     inkscape:window-maximized="1"
     inkscape:current-layer="g4" /><defs
     id="defs1" /><g
     inkscape:label="Layer 1"
     inkscape:groupmode="layer"
     id="layer1"><g
       id="g5"
       transform="matrix(0.0271992,0,0,0.02390311,-0.29385774,1.415394)">
	
	<g
   id="g4"
   transform="matrix(1.9327589,0,0,2.1598891,-560.59888,-686.03306)"
   style="stroke:#000000;stroke-opacity:1">
		<path
   d="m 295.641,471.08 c 4.878,-11.994 13.824,-17.009 26.624,-15.883 4.537,0.4 9.137,0.066 14.156,0.066 0,41.173 0,82.186 0,123.471 -8.115,0 -16.193,0.512 -24.176,-0.138 -8.721,-0.71 -12.848,-7.606 -16.603,-14.495 -10e-4,-31.008 -10e-4,-62.014 -10e-4,-93.021 z"
   id="path2"
   style="stroke:#000000;stroke-opacity:1" />
		<path
   d="m 904.359,564.101 c -1.905,2.895 -3.215,6.626 -5.85,8.487 -3.975,2.809 -8.711,5.432 -13.416,6.11 -7.026,1.012 -14.304,0.264 -21.759,0.264 0,-41.377 0,-82.278 0,-123.523 7.971,0 15.725,-0.602 23.345,0.156 9.181,0.912 14.171,7.584 17.68,15.485 0,31.007 0,62.013 0,93.021 z"
   id="path3"
   style="stroke:#000000;stroke-opacity:1" />
		<path
   d="m 392.845,827.489 c -14.483,-0.714 -25.576,-6.214 -33.729,-17.299 -6.128,-8.333 -7.896,-17.834 -7.889,-27.923 0.038,-80.863 0.022,-161.727 0.022,-242.588 0,-40.697 0.156,-81.393 -0.048,-122.088 -0.156,-30.916 8.565,-58.866 28.417,-82.57 22.871,-27.309 52.364,-43.354 88.24,-44.434 37.316,-1.124 74.691,-0.36 112.037,-0.378 47.039,-0.022 94.078,0.19 141.114,-0.092 21.599,-0.128 42.041,4.217 60.951,14.447 21.515,11.642 38.37,28.279 50.2,49.864 10.749,19.61 15.257,40.655 15.247,62.882 -0.044,120.5 -0.376,241.005 0.252,361.505 0.142,26.878 -14.391,47.085 -41.867,48.941 0,12.582 0.22,25.224 -0.1,37.854 -0.142,5.564 -0.752,11.274 -2.241,16.613 -4.119,14.775 -18.652,26.724 -34.079,27.296 -16.885,0.624 -33.839,0.736 -50.712,-0.032 -18.464,-0.842 -34.625,-16.953 -35.933,-35.533 -0.914,-12.978 -0.464,-26.05 -0.616,-39.08 -0.026,-2.271 -0.002,-4.545 -0.002,-7.182 -55.241,0 -110.088,0 -165.594,0 0,12.78 0.264,25.414 -0.118,38.032 -0.174,5.726 -0.976,11.61 -2.623,17.083 -4.391,14.581 -18.762,26.16 -34.007,26.718 -16.887,0.62 -33.84,0.728 -50.714,-0.032 -18.576,-0.836 -34.923,-17.609 -35.831,-36.213 -0.644,-13.182 -0.288,-26.414 -0.374,-39.624 -0.013,-1.904 -0.003,-3.81 -0.003,-6.167 z M 806.206,414.41 c -138.175,0 -275.972,0 -413.599,0 0,82.81 0,165.168 0,247.557 138.061,0 275.718,0 413.599,0 0,-82.627 0,-164.861 0,-247.557 z M 516.982,331.318 c 0,13.914 0,27.511 0,41.163 55.141,0 109.822,0 164.673,0 0,-13.868 0,-27.441 0,-41.163 -55.153,0 -109.848,0 -164.673,0 z M 392.649,745.802 c 1.056,23.305 20.104,41.215 42.775,40.217 22.565,-0.994 40.629,-20.17 39.752,-42.201 -0.926,-23.273 -20.12,-41.293 -42.791,-40.173 -22.906,1.132 -40.736,20.05 -39.736,42.157 z M 764.82,786.06 c 22.639,-0.056 41.165,-18.612 41.243,-41.311 0.076,-22.593 -18.648,-41.209 -41.383,-41.145 -22.775,0.064 -41.423,18.708 -41.277,41.269 0.144,22.667 18.825,41.243 41.417,41.187 z"
   id="path4"
   style="stroke:none;stroke-opacity:1" />
	<path
   style="fill:#388e3c;stroke:#000000;stroke-width:2.71748029;paint-order:fill markers stroke;fill-opacity:1;stroke-dasharray:none"
   d="m 25.12011,120.49791 c -0.564475,-0.15169 -1.366919,-0.4754 -1.783208,-0.71937 -1.112457,-0.65194 -2.667597,-2.38598 -3.24522,-3.61855 -0.501304,-1.06971 -0.506028,-1.11878 -0.599004,-6.22024 l -0.09372,-5.14203 -1.318215,-0.22185 c -3.821924,-0.64323 -6.372982,-3.33462 -6.845057,-7.2216 C 11.109002,96.311178 11.066388,83.200633 11.109934,58.665463 11.183384,17.281985 11.073564,20.636064 12.495181,16.356524 14.423299,10.552244 19.039831,5.3771399 24.834416,2.5243164 27.46756,1.2279522 29.845109,0.56097453 32.857668,0.27353974 34.27169,0.13862505 43.693147,0.09474152 61.758047,0.13892675 c 29.641647,0.072501 27.35047,-0.0209378 31.246669,1.27430215 7.162534,2.3810898 12.856454,8.0633696 15.212984,15.1818851 1.28797,3.890662 1.21871,1.510966 1.25716,43.194927 0.0325,35.254459 0.0139,37.739538 -0.28964,38.704211 -0.50743,1.612588 -1.38264,3.106418 -2.35028,4.011528 -1.34894,1.26178 -2.33115,1.69265 -5.20124,2.28167 l -0.42172,0.0865 v 4.28173 c 0,2.35495 -0.0848,4.73604 -0.18842,5.29131 -0.56971,3.05266 -2.972827,5.5329 -5.987192,6.17936 -0.56803,0.12182 -3.056585,0.17327 -6.509193,0.13456 -5.215497,-0.0585 -5.656245,-0.0898 -6.585619,-0.46776 -2.144389,-0.87215 -3.700566,-2.48704 -4.551396,-4.72312 -0.358573,-0.94237 -0.409916,-1.54776 -0.498425,-5.87691 l -0.09868,-4.82631 H 60.350435 43.907804 l -0.102883,4.54517 c -0.132077,5.83487 -0.449577,7.0507 -2.351625,9.00527 -1.088977,1.11905 -2.118811,1.73261 -3.521231,2.0979 -1.538006,0.4006 -11.305923,0.38742 -12.811955,-0.0173 z m 5.887105,-24.498029 c 5.165814,-2.453234 6.351876,-8.767066 2.42105,-12.888127 -4.604674,-4.827519 -12.991532,-2.29266 -14.144463,4.275051 -0.517016,2.945198 0.961596,6.329129 3.502447,8.015648 1.66206,1.103213 2.840405,1.420717 4.98212,1.342425 1.618058,-0.05915 1.960514,-0.13792 3.238846,-0.744997 z m 65.745539,0.02007 c 6.139786,-2.915773 6.301656,-11.544053 0.271685,-14.482387 -3.386234,-1.650072 -7.190525,-1.055114 -9.749953,1.524807 -4.281199,4.315478 -2.471128,11.452211 3.396821,13.392954 0.837115,0.276864 1.476501,0.341042 2.88485,0.289558 1.606667,-0.05873 1.96478,-0.139946 3.196597,-0.724932 z m 4.834086,-47.66311 V 24.084703 H 60.35233 19.117819 V 48.356836 72.628968 H 60.35233 101.58684 Z M 76.846134,12.089209 V 7.9657578 H 60.35233 43.858525 V 12.089209 16.21266 H 60.35233 76.846134 Z"
   id="path1"
   transform="matrix(5.0330202,0,0,5.1247965,295.64101,290.209)" /><path
   style="fill:#388e3c;fill-opacity:1;stroke:#000000;stroke-width:1.96157479;paint-order:fill markers stroke;stroke-dasharray:none"
   d="M 112.83262,44.278155 V 32.233716 l 2.28026,0.0501 c 2.81344,0.06181 3.54486,0.250025 4.43645,1.141613 1.38902,1.389025 1.34276,1.010713 1.34276,10.98058 v 8.925161 l -0.47684,0.755366 c -0.58534,0.927233 -1.87578,1.771935 -3.11199,2.037054 -0.51036,0.109453 -1.72504,0.199005 -2.69929,0.199005 h -1.77135 z"
   id="path5"
   transform="matrix(5.0330202,0,0,5.1247965,295.64101,290.209)" /><path
   style="fill:#078b07;fill-opacity:1;stroke:#060c06;stroke-width:1.96157479;paint-order:fill markers stroke;stroke-opacity:1;stroke-dasharray:none"
   d="M 3.7485919,56.195145 C 2.2054205,56.03646 1.455285,55.545076 0.5307812,54.087286 L 0,53.25033 V 44.376652 C 0,34.474519 -0.04553113,34.842994 1.3424403,33.512539 2.4967228,32.40609 3.5094921,32.203902 7.3566116,32.311878 l 0.702861,0.01973 v 11.876303 11.876303 l -0.8695929,0.119192 c -0.8750893,0.119944 -2.226082,0.116701 -3.4412878,-0.0083 z"
   id="path6"
   transform="matrix(5.0330202,0,0,5.1247965,295.64101,290.209)" /></g>
</g></g></svg>
