<?xml version="1.0" encoding="UTF-8" standalone="no"?>
<!-- Created with Inkscape (http://www.inkscape.org/) -->

<svg
   width="32mm"
   height="32mm"
   viewBox="0 0 32 32"
   version="1.1"
   id="svg1"
   xml:space="preserve"
   inkscape:version="1.4 (e7c3feb1, 2024-10-09)"
   sodipodi:docname="bus-icon.svg"
   xmlns:inkscape="http://www.inkscape.org/namespaces/inkscape"
   xmlns:sodipodi="http://sodipodi.sourceforge.net/DTD/sodipodi-0.dtd"
   xmlns="http://www.w3.org/2000/svg"
   xmlns:svg="http://www.w3.org/2000/svg"><sodipodi:namedview
     id="namedview1"
     pagecolor="#ffffff"
     bordercolor="#000000"
     borderopacity="0.25"
     inkscape:showpageshadow="2"
     inkscape:pageopacity="0.0"
     inkscape:pagecheckerboard="0"
     inkscape:deskcolor="#d1d1d1"
     inkscape:document-units="mm"
     inkscape:zoom="5.3353367"
     inkscape:cx="56.884882"
     inkscape:cy="68.036943"
     inkscape:window-width="1792"
     inkscape:window-height="1067"
     inkscape:window-x="0"
     inkscape:window-y="25"
     inkscape:window-maximized="1"
     inkscape:current-layer="g4" /><defs
     id="defs1" /><g
     inkscape:label="Layer 1"
     inkscape:groupmode="layer"
     id="layer1"><g
       id="g5"
       transform="matrix(0.0271992,0,0,0.02390311,-0.29385774,1.415394)">
	
	<g
   id="g4"
   transform="matrix(1.9327589,0,0,2.1598891,-560.59888,-686.03306)"
   style="stroke:#000000;stroke-opacity:1">
		<path
   d="m 295.641,471.08 c 4.878,-11.994 13.824,-17.009 26.624,-15.883 4.537,0.4 9.137,0.066 14.156,0.066 0,41.173 0,82.186 0,123.471 -8.115,0 -16.193,0.512 -24.176,-0.138 -8.721,-0.71 -12.848,-7.606 -16.603,-14.495 -10e-4,-31.008 -10e-4,-62.014 -10e-4,-93.021 z"
   id="path2"
   style="stroke:#000000;stroke-opacity:1" />
		<path
   d="m 904.359,564.101 c -1.905,2.895 -3.215,6.626 -5.85,8.487 -3.975,2.809 -8.711,5.432 -13.416,6.11 -7.026,1.012 -14.304,0.264 -21.759,0.264 0,-41.377 0,-82.278 0,-123.523 7.971,0 15.725,-0.602 23.345,0.156 9.181,0.912 14.171,7.584 17.68,15.485 0,31.007 0,62.013 0,93.021 z"
   id="path3"
   style="stroke:#000000;stroke-opacity:1" />
		<path
   d="m 392.845,827.489 c -14.483,-0.714 -25.576,-6.214 -33.729,-17.299 -6.128,-8.333 -7.896,-17.834 -7.889,-27.923 0.038,-80.863 0.022,-161.727 0.022,-242.588 0,-40.697 0.156,-81.393 -0.048,-122.088 -0.156,-30.916 8.565,-58.866 28.417,-82.57 22.871,-27.309 52.364,-43.354 88.24,-44.434 37.316,-1.124 74.691,-0.36 112.037,-0.378 47.039,-0.022 94.078,0.19 141.114,-0.092 21.599,-0.128 42.041,4.217 60.951,14.447 21.515,11.642 38.37,28.279 50.2,49.864 10.749,19.61 15.257,40.655 15.247,62.882 -0.044,120.5 -0.376,241.005 0.252,361.505 0.142,26.878 -14.391,47.085 -41.867,48.941 0,12.582 0.22,25.224 -0.1,37.854 -0.142,5.564 -0.752,11.274 -2.241,16.613 -4.119,14.775 -18.652,26.724 -34.079,27.296 -16.885,0.624 -33.839,0.736 -50.712,-0.032 -18.464,-0.842 -34.625,-16.953 -35.933,-35.533 -0.914,-12.978 -0.464,-26.05 -0.616,-39.08 -0.026,-2.271 -0.002,-4.545 -0.002,-7.182 -55.241,0 -110.088,0 -165.594,0 0,12.78 0.264,25.414 -0.118,38.032 -0.174,5.726 -0.976,11.61 -2.623,17.083 -4.391,14.581 -18.762,26.16 -34.007,26.718 -16.887,0.62 -33.84,0.728 -50.714,-0.032 -18.576,-0.836 -34.923,-17.609 -35.831,-36.213 -0.644,-13.182 -0.288,-26.414 -0.374,-39.624 -0.013,-1.904 -0.003,-3.81 -0.003,-6.167 z M 806.206,414.41 c -138.175,0 -275.972,0 -413.599,0 0,82.81 0,165.168 0,247.557 138.061,0 275.718,0 413.599,0 0,-82.627 0,-164.861 0,-247.557 z M 516.982,331.318 c 0,13.914 0,27.511 0,41.163 55.141,0 109.822,0 164.673,0 0,-13.868 0,-27.441 0,-41.163 -55.153,0 -109.848,0 -164.673,0 z M 392.649,745.802 c 1.056,23.305 20.104,41.215 42.775,40.217 22.565,-0.994 40.629,-20.17 39.752,-42.201 -0.926,-23.273 -20.12,-41.293 -42.791,-40.173 -22.906,1.132 -40.736,20.05 -39.736,42.157 z M 764.82,786.06 c 22.639,-0.056 41.165,-18.612 41.243,-41.311 0.076,-22.593 -18.648,-41.209 -41.383,-41.145 -22.775,0.064 -41.423,18.708 -41.277,41.269 0.144,22.667 18.825,41.243 41.417,41.187 z"
   id="path4"
   style="stroke:none;stroke-opacity:1" />
	</g>
</g></g></svg>
