<?xml version="1.0" encoding="UTF-8" standalone="no"?>
<!-- Created with Inkscape (http://www.inkscape.org/) -->

<svg
   viewBox="0 0 32 32"
   version="1.1"
   id="svg1"
   xml:space="preserve"
   sodipodi:docname="ferry-icon.svg"
   inkscape:version="1.4 (e7c3feb1, 2024-10-09)"
   xmlns:inkscape="http://www.inkscape.org/namespaces/inkscape"
   xmlns:sodipodi="http://sodipodi.sourceforge.net/DTD/sodipodi-0.dtd"
   xmlns="http://www.w3.org/2000/svg"
   xmlns:svg="http://www.w3.org/2000/svg"><sodipodi:namedview
     id="namedview1"
     pagecolor="#ffffff"
     bordercolor="#000000"
     borderopacity="0.25"
     inkscape:showpageshadow="2"
     inkscape:pageopacity="0.0"
     inkscape:pagecheckerboard="0"
     inkscape:deskcolor="#d1d1d1"
     inkscape:document-units="mm"
     inkscape:zoom="5.4727173"
     inkscape:cx="56.18781"
     inkscape:cy="55.365549"
     inkscape:window-width="1792"
     inkscape:window-height="1067"
     inkscape:window-x="0"
     inkscape:window-y="25"
     inkscape:window-maximized="1"
     inkscape:current-layer="layer2" /><defs
     id="defs1" /><g
     inkscape:groupmode="layer"
     id="layer2"
     inkscape:label="Layer 2"><path
       style="display:inline;fill:none;stroke:#040e04;stroke-width:0.813;stroke-dasharray:none;stroke-opacity:1;paint-order:fill markers stroke"
       d="m 1.3363091,25.551849 c 0,0 1.2958148,-0.445437 2.6321239,0.688401 1.336309,1.133838 2.3891586,1.012357 3.0775602,0.526426 0.6884017,-0.485931 1.0528496,-0.850379 1.0528496,-0.850379 0,0 1.0123554,-0.688402 1.9842162,-0.485931 0.971861,0.202471 0.688402,-0.161977 1.741252,0.526425 1.052849,0.688401 1.376803,1.862733 2.875089,1.052849 1.498286,-0.809884 1.295815,-1.093343 2.146193,-1.417297 0.850378,-0.323954 1.295815,-0.323954 2.267676,0 0.971861,0.323954 1.093344,1.052849 1.903228,1.295816 0.809884,0.242964 1.336309,0.566918 2.713112,-0.607414 1.376803,-1.174333 2.7941,-0.931367 2.7941,-0.931367 0,0 1.093346,0.04049 2.510642,1.457792 0,0 0.647908,0.566919 1.133839,0.283459"
       id="path2" /><path
       style="fill:#000000;stroke:#000000;stroke-width:0.312999;paint-order:fill markers stroke;stroke-opacity:1;fill-opacity:1"
       d="m 7.8153833,24.579988 c 0,0 2.6321237,-1.174333 4.5758467,0.283459 1.943722,1.457792 2.065204,0.76939 2.065204,0.76939 0,0 1.376804,-1.174332 2.186688,-1.376803 0.809884,-0.202471 1.619768,-0.28346 2.186687,-0.161977 0.566919,0.121483 1.862734,0.688402 2.227182,1.174332 0.364448,0.485931 0.931367,0.890873 1.53878,0.364448 0.607413,-0.526425 1.214827,-1.174332 1.660263,-1.174332 0.445436,0 2.551136,-4.656835 2.551136,-4.656835 0,0 0.526423,-0.607413 0.04049,-1.012355 -0.485932,-0.404942 -9.273176,-6.803028 -9.273176,-6.803028 0,0 -1.174333,-1.093343 -2.672618,-0.121482 -1.498286,0.971861 -9.3136695,6.762533 -9.3136695,6.762533 0,0 -0.566919,0.28346 -0.1619768,1.174332 0.4049421,0.890873 2.3891586,4.778318 2.3891586,4.778318 z"
       id="path1" /><path
       style="display:inline;fill:none;stroke:#040e04;stroke-width:0.813;stroke-dasharray:none;stroke-opacity:1;paint-order:fill markers stroke"
       d="m 1.3363091,25.551849 c 0,0 1.2958148,-0.445437 2.6321239,0.688401 1.336309,1.133838 2.3891586,1.012357 3.0775602,0.526426 0.6884017,-0.485931 1.0528496,-0.850379 1.0528496,-0.850379 0,0 0.8714673,-0.615318 1.9842162,-0.485931 1.002237,0.116537 0.586438,0.02763 1.741252,0.526425 1.089008,0.470369 1.376803,1.862733 2.875089,1.052849 1.498286,-0.809884 1.295815,-1.093343 2.146193,-1.417297 0.850378,-0.323954 1.295815,-0.323954 2.267676,0 0.971861,0.323954 1.093344,1.052849 1.903228,1.295816 0.809884,0.242964 1.336309,0.566918 2.713112,-0.607414 1.376803,-1.174333 2.7941,-0.931367 2.7941,-0.931367 0,0 1.093346,0.04049 2.510642,1.457792 0,0 0.647908,0.566919 1.133839,0.283459"
       id="path3"
       inkscape:label="path3"
       sodipodi:nodetypes="csscsssssssccc" /><path
       style="display:inline;fill:none;stroke:#040e04;stroke-width:0.813;stroke-dasharray:none;stroke-opacity:1;paint-order:fill markers stroke"
       d="m 1.3363091,28.197684 c 0,0 1.2958148,-0.445437 2.6321239,0.688401 1.336309,1.133838 2.3891586,1.012357 3.0775602,0.526426 0.6884017,-0.485931 1.0528496,-0.850379 1.0528496,-0.850379 0,0 0.8714673,-0.615318 1.9842162,-0.485931 1.002237,0.116537 0.586438,0.02763 1.741252,0.526425 1.089008,0.470369 1.376803,1.862733 2.875089,1.052849 1.498286,-0.809884 1.295815,-1.093343 2.146193,-1.417297 0.850378,-0.323954 1.295815,-0.323954 2.267676,0 0.971861,0.323954 1.093344,1.052849 1.903228,1.295816 0.809884,0.242964 1.336309,0.566918 2.713112,-0.607414 1.376803,-1.174333 2.7941,-0.931367 2.7941,-0.931367 0,0 1.093346,0.04049 2.510642,1.457792 0,0 0.647908,0.566919 1.133839,0.283459"
       id="path4"
       inkscape:label="path3"
       sodipodi:nodetypes="csscsssssssccc" /><path
       style="fill:none;stroke:#040e04;stroke-width:0.913;stroke-dasharray:none;stroke-opacity:1;paint-order:fill markers stroke"
       d="m 9.4099188,14.589021 c 0,0 4.5225972,-3.209584 5.3614652,-3.647255 0.838869,-0.437671 1.458902,-0.510616 2.297771,-0.109418 0.838869,0.401198 3.552975,2.181653 5.522357,3.806852 L 22.038991,6.7766952 c 0,0 -0.117855,-1.5026585 -1.59105,-1.5615863 -1.473195,-0.058928 -2.416039,0 -2.416039,0 V 3.0642448 c 0,0 -0.559814,-0.7071334 -1.119628,0.029464 l -0.02946,2.0919362 -1.708906,0.029464 0.08839,-3.8597699 c 0,0 -0.559814,-0.88391673 -1.237483,-0.029464 l 0.02946,3.8597699 -2.533894,0.058928 c 0,0 -1.149092,0.1178555 -1.325875,1.620514 -0.176784,1.5026585 -0.7845882,7.723934 -0.7845882,7.723934 z"
       id="path5"
       sodipodi:nodetypes="cssccscccccccccscc" /><path
       style="fill:none;stroke:#040e04;stroke-width:0.409;stroke-dasharray:none;stroke-opacity:1;paint-order:fill markers stroke"
       d="m 11.461454,7.4838284 c 0,0 2.445503,-0.8249888 2.445503,-0.3241027 0,0.5008862 0.235711,1.2964112 -0.117856,1.4731944 -0.353566,0.1767835 -2.033008,0 -2.033008,0 0,0 -0.324103,-0.058928 -0.324103,-0.3535666 0,-0.294639 0.02946,-0.7955251 0.02946,-0.7955251 z"
       id="path6" /><path
       style="fill:none;stroke:#040e04;stroke-width:0.408;stroke-dasharray:none;stroke-opacity:1;paint-order:fill markers stroke"
       d="m 20.589066,7.4836334 c 0,0 -2.439401,-0.8254226 -2.439401,-0.3242731 0,0.5011496 -0.235123,1.2970929 0.117562,1.473969 0.352683,0.1768765 2.027935,0 2.027935,0 0,0 0.323294,-0.058959 0.323294,-0.3537525 0,-0.2947939 -0.02939,-0.7959434 -0.02939,-0.7959434 z"
       id="path7" /><path
       style="fill:none;stroke:#040e04;stroke-width:0.413;stroke-dasharray:none;stroke-opacity:1;paint-order:fill markers stroke"
       d="m 14.93621,6.9101993 2.192471,0.039151 c 0,0 0.195757,0.039151 0.215332,0.1761805 0.01958,0.1370296 0.01958,1.3311434 0.01958,1.3311434 0,0 0,0.2544834 -0.254484,0.2544834 h -2.114168 c 0,0 -0.195757,-0.03844 -0.195757,-0.2733476 0,-0.2349076 -0.09788,-1.3710061 0.13703,-1.5276111 z"
       id="path8"
       sodipodi:nodetypes="ccccscscc" /><path
       style="fill:#000000;fill-opacity:1;stroke:#000000;stroke-width:0;stroke-dasharray:none;stroke-opacity:0;paint-order:fill markers stroke"
       d="m 37.849992,50.920837 c 0,-0.490285 1.947411,-19.859652 2.310244,-22.978191 0.358355,-3.080038 0.598923,-3.883172 1.466889,-4.897195 1.16915,-1.365889 1.181486,-1.368367 7.596016,-1.525845 l 5.792389,-0.142203 -0.07659,-7.870085 c -0.07553,-7.7613943 -0.07103,-7.8700851 0.326072,-7.8700851 0.39717,0 0.40165,0.1095329 0.328599,8.0334751 l -0.07406,8.033475 0.957812,-0.131282 c 0.526797,-0.07221 2.800702,-0.131283 5.05312,-0.131283 h 4.095309 l 0.05418,-4.462935 c 0.0407,-3.352056 0.116826,-4.483784 0.305846,-4.546697 0.196427,-0.06538 0.251654,0.925179 0.251628,4.513268 l -3.6e-5,4.597029 h 5.989596 c 5.738657,0 6.023333,0.01808 6.794913,0.431568 0.972189,0.520994 1.320798,0.898948 1.923164,2.085054 0.425857,0.838545 0.516423,1.692762 1.21667,11.475795 0.41611,5.813396 0.821897,11.699288 0.901746,13.079759 l 0.145185,2.509946 -0.986069,-0.818091 c -2.284142,-1.895043 -8.398043,-6.067622 -12.562529,-8.573605 -4.70416,-2.830735 -6.599716,-3.580722 -9.050078,-3.580722 -3.414205,0 -5.678198,1.222186 -17.576626,9.488512 -2.574039,1.788289 -4.793319,3.340489 -4.931734,3.44933 -0.181659,0.142849 -0.251662,0.09584 -0.251662,-0.168992 z M 52.345734,33.263972 c 0.989197,-0.49427 1.24768,-1.400651 1.100085,-3.857502 -0.134322,-2.235938 -0.329647,-3.103552 -0.760354,-3.377421 -0.131486,-0.08361 -0.873255,-0.152763 -1.648375,-0.153683 -1.464477,-0.0017 -3.590703,0.42914 -6.577714,1.332972 l -1.745801,0.528255 -0.138163,1.658627 c -0.166934,2.004024 -0.03197,2.717931 0.631678,3.341399 0.626192,0.588278 1.606216,0.719776 5.615373,0.753469 2.058691,0.0173 3.180156,-0.05467 3.523271,-0.226116 z m 13.489093,-0.145229 c 0.368022,-0.368023 0.402659,-0.671098 0.402659,-3.52327 0,-2.803648 -0.03908,-3.159688 -0.384713,-3.505324 -0.51717,-0.51717 -2.095486,-0.659674 -6.457998,-0.583084 l -3.520769,0.06181 -0.304496,0.603989 c -0.230414,0.457045 -0.304495,1.321263 -0.304495,3.552202 0,4.109927 -0.451604,3.796334 5.467107,3.796334 4.431606,0 4.723043,-0.023 5.102705,-0.40266 z m 11.620825,-0.0685 c 0.356593,-0.186077 0.741637,-0.512626 0.855652,-0.725663 0.114013,-0.213037 0.207297,-1.332839 0.207297,-2.488448 v -2.101109 l -2.164295,-0.626496 c -3.352732,-0.97051 -4.663649,-1.231452 -6.202742,-1.234675 -1.985057,-0.0042 -2.103956,0.11906 -2.341268,2.426295 -0.33954,3.301146 -0.06544,4.50857 1.145142,5.044329 0.221463,0.09801 2.078729,0.148026 4.12726,0.111146 3.00273,-0.05406 3.850258,-0.132626 4.372954,-0.405379 z"
       id="path16"
       transform="scale(0.26458333)" /><path
       style="fill:#000000;fill-opacity:1;stroke:#000000;stroke-width:0;stroke-dasharray:none;stroke-opacity:0;paint-order:fill markers stroke"
       d="m 66.238248,29.178264 c -2.13e-4,-2.172109 -0.04824,-2.669455 -0.288146,-2.983884 -0.06996,-0.09169 -0.17686,-0.186681 -0.280575,-0.24931 -0.309698,-0.187014 -0.855753,-0.309462 -1.691319,-0.379264 -1.013791,-0.08469 -2.366588,-0.09952 -4.983673,-0.05465 -0.384008,0.0066 -0.825497,0.01468 -0.981086,0.018 -0.155589,0.0033 -0.452172,0.0087 -0.659073,0.01197 -0.2069,0.0033 -0.424936,0.0073 -0.484523,0.0091 -0.05959,0.0017 -0.245803,0.0049 -0.413811,0.007 l -0.30547,0.0039 0.0015,-1.97043 0.0015,-1.970429 0.120379,-0.01641 c 0.322319,-0.04393 0.427407,-0.05359 0.806536,-0.07419 0.13999,-0.0076 0.785387,-0.0088 4.657147,-0.0089 4.490635,-3.9e-5 4.494635,-2.8e-5 4.494635,0.012 0,0.012 0.004,0.01204 1.357269,0.01204 h 1.357268 v 2.1939 2.193899 l -0.01354,7.2e-5 c -0.02406,1.27e-4 -0.164937,0.03485 -0.231606,0.05708 -0.417045,0.139099 -0.615379,0.439474 -0.741393,1.122828 -0.09774,0.530044 -0.239486,1.931833 -0.269131,2.661597 l -0.0041,0.100817 h -0.724375 -0.724375 z"
       id="path17"
       transform="scale(0.26458333)" /><path
       style="fill:#000000;fill-opacity:1;stroke:#000000;stroke-width:0;stroke-dasharray:none;stroke-opacity:0;paint-order:fill markers stroke"
       d="m 64.597656,25.669531 c -0.155269,-0.0031 -0.38225,-0.0072 -1.380859,-0.025 -0.298633,-0.0053 -0.690625,-0.01235 -0.871094,-0.0156 -0.350227,-0.0063 -3.792157,-0.06763 -3.890625,-0.06933 l -0.05859,-0.001 -0.0012,-0.01193 c -9.01e-4,-0.0092 8.79e-4,-0.01295 0.0078,-0.0164 0.0063,-0.0031 0.119802,-0.0063 0.376167,-0.01062 0.201953,-0.0034 0.460351,-0.0078 0.574219,-0.0099 1.915757,-0.03455 3.312508,-0.0236 4.24414,0.03329 0.466292,0.02847 0.882431,0.07231 1.164063,0.122621 0.04887,0.0087 0.06417,0.0084 -0.164063,0.0039 z"
       id="path18"
       transform="scale(0.26458333)" /><rect
       style="fill:#ffffff;fill-opacity:1;stroke:#000000;stroke-width:0.723873;stroke-linecap:round;stroke-linejoin:bevel;stroke-dasharray:none;stroke-opacity:0;paint-order:fill markers stroke"
       id="rect23"
       width="2.3291292"
       height="1.1968603"
       x="0.81354654"
       y="18.462084"
       rx="0.12702513"
       transform="matrix(0.83978519,-0.54291881,0.59521606,0.8035657,0,0)"
       ry="0.1154862" /><rect
       style="fill:#ffffff;fill-opacity:1;stroke:#000000;stroke-width:0.694115;stroke-linecap:round;stroke-linejoin:bevel;stroke-dasharray:none;stroke-opacity:0;paint-order:fill markers stroke"
       id="rect24"
       width="2.2264178"
       height="1.1512481"
       x="22.972248"
       y="0.19632922"
       rx="0.12142349"
       transform="matrix(0.82327034,0.56764949,-0.61249678,0.79047308,0,0)"
       ry="0.11108503" /></g></svg>
