<?xml version="1.0" encoding="UTF-8" standalone="no"?>
<!-- Created with Inkscape (http://www.inkscape.org/) -->

<svg
   viewBox="0 0 32 32"
   version="1.1"
   id="svg1"
   xml:space="preserve"
   inkscape:version="1.4 (e7c3feb1, 2024-10-09)"
   sodipodi:docname="metro-icon.svg"
   xmlns:inkscape="http://www.inkscape.org/namespaces/inkscape"
   xmlns:sodipodi="http://sodipodi.sourceforge.net/DTD/sodipodi-0.dtd"
   xmlns="http://www.w3.org/2000/svg"
   xmlns:svg="http://www.w3.org/2000/svg"><sodipodi:namedview
     id="namedview1"
     pagecolor="#ffffff"
     bordercolor="#000000"
     borderopacity="0.25"
     inkscape:showpageshadow="2"
     inkscape:pageopacity="0.0"
     inkscape:pagecheckerboard="0"
     inkscape:deskcolor="#d1d1d1"
     inkscape:document-units="mm"
     inkscape:zoom="1.9580556"
     inkscape:cx="-2.808909"
     inkscape:cy="65.881685"
     inkscape:window-width="1792"
     inkscape:window-height="1067"
     inkscape:window-x="0"
     inkscape:window-y="25"
     inkscape:window-maximized="1"
     inkscape:current-layer="layer2" /><defs
     id="defs1" /><g
     inkscape:groupmode="layer"
     id="layer2"
     inkscape:label="metro"><rect
       style="fill:none;stroke:#020a01;stroke-width:1;paint-order:fill markers stroke;stroke-dasharray:none"
       id="rect1"
       width="24.188971"
       height="20.786667"
       x="4.2878323"
       y="3.9149778"
       ry="4.2379379" /><rect
       style="fill:none;stroke:#020a01;stroke-width:0.267346;stroke-dasharray:none;paint-order:fill markers stroke"
       id="rect2"
       width="5.841928"
       height="1.5202836"
       x="13.42713"
       y="4.8941689"
       ry="0.76014179"
       rx="0.44788155" /><rect
       style="fill:none;stroke:#020a01;stroke-width:0.288934;stroke-dasharray:none;paint-order:fill markers stroke"
       id="rect3"
       width="17.433571"
       height="6.3534069"
       x="7.5893321"
       y="7.5131793"
       rx="2.3967586"
       ry="1.2614971" /><path
       style="fill:none;stroke:#020a01;stroke-width:0.314812;stroke-dasharray:none;paint-order:fill markers stroke"
       id="path3"
       sodipodi:type="arc"
       sodipodi:cx="9.8959503"
       sodipodi:cy="20.775742"
       sodipodi:rx="2.3578515"
       sodipodi:ry="1.6585407"
       sodipodi:start="2.7659156"
       sodipodi:end="2.7624946"
       sodipodi:arc-type="arc"
       d="m 7.7025367,21.384264 a 2.3578515,1.6585407 0 0 1 1.3264365,-2.150875 2.3578515,1.6585407 0 0 1 3.0589078,0.931192 2.3578515,1.6585407 0 0 1 -1.321204,2.152467 2.3578515,1.6585407 0 0 1 -3.0611679,-0.927509"
       sodipodi:open="true" /><path
       style="fill:none;stroke:#020a01;stroke-width:0.314812;stroke-dasharray:none;paint-order:fill markers stroke"
       id="path4"
       sodipodi:type="arc"
       sodipodi:cx="22.774614"
       sodipodi:cy="20.76298"
       sodipodi:rx="2.3578515"
       sodipodi:ry="1.6585407"
       sodipodi:start="2.7659156"
       sodipodi:end="2.7624946"
       sodipodi:arc-type="arc"
       d="m 20.581201,21.371502 a 2.3578515,1.6585407 0 0 1 1.326436,-2.150875 2.3578515,1.6585407 0 0 1 3.058908,0.931192 2.3578515,1.6585407 0 0 1 -1.321204,2.152467 2.3578515,1.6585407 0 0 1 -3.061168,-0.927509"
       sodipodi:open="true" /><path
       style="fill:none;stroke:#020a01;stroke-width:0.264583;stroke-dasharray:none;paint-order:fill markers stroke"
       d="m 2.2235064,31.63571 6.3039405,-6.578726 3.0816691,-0.03203 -1.031494,1.101969 11.416912,-0.03203 -1.15963,-1.044308 3.190585,-0.01281 6.422295,6.64734 H 27.30596 L 26.299121,30.59335 6.2836461,30.605494 5.1676318,31.73364 Z"
       id="path5" /><path
       style="fill:none;stroke:#020a01;stroke-width:0.264583;stroke-dasharray:none;paint-order:fill markers stroke"
       d="M 7.9060632,28.827243 8.8534374,27.891147 H 23.740746 l 0.924818,0.958654 z"
       id="path6" /><path
       style="fill:none;stroke:#020a01;stroke-width:0.20648;stroke-dasharray:none;paint-order:fill markers stroke"
       id="path8"
       sodipodi:type="arc"
       sodipodi:cx="18.694189"
       sodipodi:cy="2.0224986"
       sodipodi:rx="1.4961647"
       sodipodi:ry="1.1243945"
       sodipodi:start="2.7659156"
       sodipodi:end="2.7624946"
       sodipodi:arc-type="arc"
       d="M 17.302368,2.4350417 A 1.4961647,1.1243945 0 0 1 18.144052,0.97687321 1.4961647,1.1243945 0 0 1 20.085069,1.608167 1.4961647,1.1243945 0 0 1 19.246705,3.0674153 1.4961647,1.1243945 0 0 1 17.304254,2.4386176"
       sodipodi:open="true" /><path
       style="fill:none;stroke:#020a01;stroke-width:0.20648;stroke-dasharray:none;paint-order:fill markers stroke"
       id="path9"
       sodipodi:type="arc"
       sodipodi:cx="13.931688"
       sodipodi:cy="2.0224986"
       sodipodi:rx="1.4961647"
       sodipodi:ry="1.1243945"
       sodipodi:start="2.7659156"
       sodipodi:end="2.7624946"
       sodipodi:arc-type="arc"
       d="M 12.539867,2.4350417 A 1.4961647,1.1243945 0 0 1 13.381552,0.97687321 1.4961647,1.1243945 0 0 1 15.322569,1.608167 1.4961647,1.1243945 0 0 1 14.484204,3.0674153 1.4961647,1.1243945 0 0 1 12.541753,2.4386176"
       sodipodi:open="true" /><path
       style="fill:#000000;fill-opacity:1;stroke:#020a01;stroke-width:0.153788;stroke-dasharray:none;paint-order:fill markers stroke"
       d="M 30.3055,91.259653 C 25.529082,90.641534 21.037495,87.138783 19.228648,82.621402 18.145922,79.917423 18.223847,82.132717 18.223847,54.056391 V 28.758307 l 0.356857,-1.307195 c 0.735652,-2.694758 2.081279,-4.988295 3.972301,-6.770541 2.471812,-2.329628 5.135056,-3.520771 8.589012,-3.841457 2.125856,-0.197378 59.314303,-0.195583 61.545517,0.0019 3.543796,0.313709 6.326731,1.604919 8.863126,4.112263 1.78493,1.764491 3.02194,3.942837 3.73355,6.574697 0.28006,1.035794 0.29107,2.039271 0.29107,26.528386 0,23.759773 -0.0179,25.52169 -0.26973,26.502073 -1.22277,4.760895 -4.63414,8.502489 -9.147846,10.033346 -0.825744,0.280057 -2.042692,0.5825 -2.704333,0.672097 -1.456653,0.197256 -61.622063,0.193202 -63.147871,-0.0043 z m 10.371357,-6.201415 c 1.390475,-0.372746 3.279551,-1.362413 4.239284,-2.220916 0.502872,-0.449832 1.073807,-1.167492 1.38409,-1.73979 0.501506,-0.925003 0.528136,-1.051662 0.528136,-2.511997 0,-1.384905 -0.04427,-1.62804 -0.445062,-2.444302 -2.088596,-4.253689 -9.263754,-5.868636 -14.546193,-3.273981 -1.396375,0.685879 -2.799452,2.04215 -3.423055,3.308868 -0.447295,0.908585 -0.501582,1.160688 -0.501582,2.329287 0,1.147055 0.05933,1.435055 0.475904,2.31005 1.012995,2.127764 3.280212,3.688455 6.36765,4.383319 1.280726,0.288242 4.616705,0.209059 5.920828,-0.140538 z m 48.520032,-0.01482 c 1.690515,-0.409663 3.483388,-1.377574 4.576523,-2.470708 1.36192,-1.361919 1.805668,-2.360678 1.805668,-4.06407 0,-1.145978 -0.05945,-1.43266 -0.482015,-2.324503 -0.892427,-1.883494 -2.784038,-3.329952 -5.438813,-4.158902 -1.003815,-0.313439 -1.462567,-0.359729 -3.537118,-0.356912 -2.712234,0.0037 -3.639917,0.191458 -5.536358,1.120633 -1.362926,0.667777 -2.996991,2.193516 -3.517024,3.283874 -0.662412,1.388882 -0.693248,3.423987 -0.07043,4.647809 1.137809,2.23575 3.622192,3.89226 6.740098,4.494091 1.322235,0.255225 4.052913,0.169537 5.459465,-0.171312 z m 0.38447,-32.488904 c 2.699099,-0.764487 4.548998,-1.996285 5.250582,-3.496226 l 0.359665,-0.768939 0.0015,-7.92832 0.0015,-7.92832 -0.398044,-0.798769 c -0.93882,-1.883969 -3.744739,-3.330304 -7.214449,-3.718749 -1.091967,-0.12225 -8.917705,-0.157551 -26.989748,-0.121747 l -25.451871,0.05042 -1.27919,0.342045 c -1.888123,0.50487 -3.429315,1.27237 -4.401694,2.192006 -1.442521,1.364276 -1.393352,1.006272 -1.393352,10.145149 0,7.438981 0.01745,7.952764 0.287284,8.458326 0.786226,1.473079 1.977902,2.413299 3.987842,3.146365 2.354342,0.858675 1.256528,0.829077 29.711964,0.801088 l 26.297704,-0.02587 z M 71.974319,24.605182 c 0.24626,-0.127346 0.640749,-0.559874 0.876642,-0.961173 0.392102,-0.667041 0.428897,-0.86157 0.428897,-2.267513 0,-1.405943 -0.03679,-1.600473 -0.428897,-2.267513 -0.749158,-1.27446 -0.07066,-1.204632 -11.247672,-1.157558 l -9.910547,0.04174 -0.468663,0.449073 c -0.257765,0.24699 -0.591,0.766023 -0.740524,1.153408 -0.323955,0.83931 -0.355589,2.590763 -0.06209,3.437974 0.236683,0.683219 0.863369,1.471167 1.315571,1.654101 0.176065,0.07123 4.700739,0.133889 10.05483,0.13925 8.381515,0.0084 9.796951,-0.02244 10.182457,-0.22179 z"
       id="path12"
       transform="scale(0.26458333)" /><path
       style="fill:#000000;fill-opacity:1;stroke:#020a01;stroke-width:0.241834;stroke-dasharray:none;paint-order:fill markers stroke"
       d="M 13.340713,119.11355 9.8739408,118.98248 21.167383,107.19306 32.460824,95.403637 h 4.856612 4.856614 l -0.83075,0.906879 c -0.456912,0.498783 -1.262696,1.369387 -1.79063,1.934675 l -0.959884,1.027795 23.085071,-0.0056 23.085071,-0.0056 -2.055592,-1.918579 -2.055592,-1.918579 4.991485,-0.01052 4.991482,-0.01052 9.633139,9.975662 c 5.29823,5.48662 10.44385,10.81907 11.43473,11.84988 l 1.80159,1.87422 -5.06,-0.0183 -5.06,-0.0183 -1.81376,-2.03377 -1.813755,-2.03377 -38.093947,-0.003 -38.093947,-0.003 -2.166424,2.17651 -2.166425,2.1765 -1.214214,-0.0503 c -0.667817,-0.0277 -2.774261,-0.10929 -4.680985,-0.18137 z M 93.94245,108.8859 c -0.387892,-0.43228 -1.411969,-1.52053 -2.275728,-2.41834 l -1.570468,-1.63238 H 61.557863 33.019472 l -2.241512,2.23219 c -1.232831,1.2277 -2.241511,2.31596 -2.241511,2.41834 0,0.10238 14.875033,0.18615 33.055629,0.18615 h 33.055629 z"
       id="path13"
       transform="scale(0.26458333)" /><path
       style="fill:#000000;fill-opacity:1;stroke:#020a01;stroke-width:0.241834;stroke-dasharray:none;paint-order:fill markers stroke"
       d="m 51.313432,11.233839 c -1.881976,-0.379724 -3.388814,-1.6457933 -3.752254,-3.1527023 -0.09934,-0.4118738 0.03291,-0.9889541 0.387944,-1.6928402 0.993566,-1.9698397 3.984892,-2.9157807 6.772502,-2.1416549 1.113649,0.3092629 2.428525,1.4226223 2.832813,2.3986587 1.091043,2.634013 -2.573772,5.3284737 -6.241005,4.5885387 z"
       id="path14"
       transform="scale(0.26458333)" /><path
       style="fill:#000000;fill-opacity:1;stroke:#020a01;stroke-width:0.241834;stroke-dasharray:none;paint-order:fill markers stroke"
       d="M 69.312979,11.220552 C 66.95527,10.660531 65.658017,9.354183 65.658017,7.5399676 c 0,-1.0546191 0.09531,-1.2549692 0.997183,-2.0962306 3.001841,-2.8000871 9.038941,-1.3124863 9.038941,2.227284 0,2.346658 -3.424852,4.251737 -6.381162,3.549531 z"
       id="path15"
       transform="scale(0.26458333)" /><path
       style="fill:#000000;fill-opacity:1;stroke:#020a01;stroke-width:0.0162941;stroke-dasharray:none;paint-order:fill markers stroke"
       d="m 105.63808,70.846914 c 3.3e-4,-0.02688 0.004,-0.03591 0.008,-0.02006 0.004,0.01585 0.004,0.03785 -6e-4,0.04888 -0.004,0.01103 -0.008,-0.0019 -0.008,-0.02882 z"
       id="path16"
       transform="scale(0.26458333)" /><path
       style="fill:#c80101;fill-opacity:1;stroke:#000000;stroke-width:0.09826772;paint-order:fill markers stroke;stroke-dasharray:none"
       d="M 33.853792,91.125009 C 29.658803,90.979751 28.672249,90.866648 27.506213,90.39728 24.107181,89.029062 21.216952,86.335604 19.68398,83.107602 18.886913,81.429207 18.697167,80.687338 18.527594,78.586374 18.416021,77.204018 18.319022,65.447443 18.312041,52.460652 l -0.01269,-23.61235 0.673184,-2.006737 c 0.370251,-1.103705 0.92217,-2.418472 1.226485,-2.921704 1.726138,-2.854429 4.444116,-5.089531 7.585662,-6.237993 l 1.886407,-0.689617 31.239599,-0.07413 c 34.531073,-0.08194 33.626029,-0.120238 36.964256,1.564155 1.889392,0.953344 5.036906,3.985299 5.903166,5.68643 0.32596,0.640097 0.81342,1.80549 1.08325,2.589763 0.46691,1.357105 0.4906,2.672188 0.4906,27.237996 0,25.009548 -0.0161,25.864282 -0.51898,27.492304 -1.01169,3.275458 -3.80753,6.592105 -6.851808,8.128163 -3.196933,1.613079 -1.704943,1.537244 -31.711389,1.611832 -15.096961,0.03753 -29.684155,-0.0092 -32.415987,-0.103754 z m 7.18903,-6.092015 c 5.106623,-1.528283 7.342069,-5.676646 5.110746,-9.484113 -2.761368,-4.711917 -12.283121,-5.450622 -16.451572,-1.276327 -2.539481,2.543042 -2.649138,5.528664 -0.29906,8.142514 1.999,2.223371 5.288834,3.284534 9.287113,2.995643 0.790793,-0.05714 1.849541,-0.227111 2.352773,-0.377717 z m 50.123039,-0.570569 c 1.704986,-0.779672 3.782718,-2.710556 4.255892,-3.9551 0.370355,-0.974111 0.317258,-3.132164 -0.101734,-4.13496 -0.845796,-2.024271 -2.969273,-3.675076 -5.777465,-4.491441 -2.319724,-0.674363 -6.347837,-0.427277 -8.415117,0.516185 -1.6361,0.746681 -3.530284,2.402657 -4.204662,3.675892 -0.237737,0.448849 -0.424424,1.463806 -0.436517,2.373187 -0.0177,1.331032 0.106204,1.794897 0.76338,2.85793 0.91394,1.478365 2.665881,2.820799 4.626321,3.544946 1.148621,0.424279 1.923478,0.498851 4.523102,0.435313 2.802009,-0.06849 3.311084,-0.156266 4.7668,-0.821952 z m 0.148533,-32.366458 c 1.936011,-0.907104 2.781916,-1.574593 3.514099,-2.772929 0.57437,-0.940047 0.586853,-1.130078 0.586853,-8.933764 0,-7.890207 -0.0064,-7.983784 -0.609824,-8.980696 C 94.011174,30.09634 92.36468,29.011566 90.072919,28.290556 L 88.228996,27.71044 H 61.433523 34.63805 l -1.711176,0.617685 c -1.979886,0.714681 -3.496776,1.68449 -4.276425,2.734089 -0.524486,0.706088 -0.551159,1.085608 -0.624672,8.888255 -0.04224,4.482869 -0.01113,8.413203 0.06913,8.734071 0.215677,0.862268 1.6459,2.381185 2.793342,2.966565 2.517547,1.284358 1.886578,1.260067 31.32953,1.206118 l 27.57973,-0.05053 z M 71.963895,24.725831 c 1.863726,-0.708587 2.014186,-5.579751 0.202297,-6.549444 -0.319899,-0.171204 -4.155654,-0.269169 -10.539203,-0.269169 H 51.59073 l -0.625937,0.666279 c -0.503862,0.536337 -0.645522,1.012932 -0.726371,2.443758 -0.112879,1.997639 0.356426,3.287597 1.340212,3.683781 0.765582,0.30831 19.579371,0.331194 20.385261,0.0248 z"
       id="path1"
       transform="scale(0.26458333)" /><path
       style="fill:#000000;fill-opacity:0;stroke:#000000;stroke-width:1.98803153;paint-order:fill markers stroke;stroke-dasharray:none"
       d="m 11.539987,118.84114 -1.138846,-0.1568 11.072778,-11.5666 11.072777,-11.566602 4.509482,-0.0012 c 2.480215,-6.61e-4 4.509482,0.09071 4.509482,0.203046 0,0.112337 -0.705832,0.902715 -1.568515,1.756397 -0.862684,0.853682 -1.568516,1.64406 -1.568516,1.756397 0,0.112336 10.496307,0.204247 23.325125,0.204247 h 23.325124 l -1.947558,-1.960644 -1.947557,-1.960644 4.699003,0.0062 4.699003,0.0062 11.110321,11.526263 c 6.11067,6.33944 11.15586,11.64939 11.21154,11.79989 0.0693,0.18744 -1.03473,0.21915 -3.50514,0.10068 -1.9835,-0.0951 -4.15603,-0.17296 -4.82786,-0.17296 -1.19438,0 -1.25873,-0.0431 -2.89963,-1.94368 l -1.678138,-1.94367 -38.304053,-0.017 -38.304052,-0.017 -2.079088,2.09135 -2.079089,2.09136 -3.273873,-0.0393 c -1.80063,-0.0216 -3.786354,-0.10982 -4.41272,-0.19606 z m 83.047593,-9.28129 c -0.04649,-0.20182 -1.057689,-1.37821 -2.247118,-2.6142 l -2.162596,-2.24724 H 61.451213 32.724563 l -2.114933,2.26049 c -1.163213,1.24327 -2.114932,2.35979 -2.114932,2.48117 0,0.21792 9.141295,0.30055 46.878567,0.42373 16.454695,0.0537 19.286383,0.009 19.214315,-0.30395 z"
       id="path2"
       transform="scale(0.26458333)" /><path
       style="fill:#c80101;fill-opacity:1;stroke:#000000;stroke-width:0.060882;paint-order:fill markers stroke"
       d="M 68.669946,10.904715 C 66.738296,10.215699 65.82953,9.1045163 65.82953,7.4316308 c 0,-0.9657493 6.08e-4,-0.9669692 0.898993,-1.8031834 1.852797,-1.7245778 4.828919,-2.0061955 7.061169,-0.6681681 2.557577,1.5330313 2.24737,4.3172035 -0.63469,5.6964757 -1.213717,0.580851 -3.238042,0.692767 -4.485056,0.24796 z"
       id="path11"
       transform="scale(0.26458333)" /><path
       style="fill:#f9f201;fill-opacity:1;stroke:#000000;stroke-width:0.43842521;paint-order:fill markers stroke;stroke-dasharray:none"
       d="M 50.58519,10.877473 C 49.20613,10.365031 47.999934,9.2233689 47.738945,8.1835067 47.437286,6.9815999 48.367855,5.577167 50.012664,4.7519685 c 1.06059,-0.5320967 1.214543,-0.5637929 2.738422,-0.5637929 1.443852,0 1.712196,0.047898 2.536738,0.452798 1.039338,0.5103771 1.97993,1.5045354 2.237805,2.3652466 0.387824,1.2944401 -0.632576,2.8577142 -2.390707,3.6626128 -1.257007,0.575477 -3.309249,0.669588 -4.549732,0.20864 z"
       id="path17"
       transform="scale(0.26458333)" /><path
       style="fill:#f9f201;fill-opacity:1;stroke:#000000;stroke-width:0.50267718;paint-order:fill markers stroke;stroke-dasharray:none"
       d="M 69.270189,10.815237 C 67.620209,10.428759 66.564331,9.5825014 66.251908,8.3961663 65.852004,6.8776473 66.092641,6.2644949 67.4074,5.4519295 69.000709,4.46721 70.60431,4.1678573 72.164547,4.5638874 c 2.915001,0.739906 3.951261,3.2212137 2.086161,4.9952755 -0.806362,0.7670021 -1.416185,1.0191521 -3.409047,1.4095721 -0.274387,0.05375 -0.981549,-0.01532 -1.571472,-0.153498 z"
       id="path18"
       transform="scale(0.26458333)" /></g></svg>
