<?xml version="1.0" encoding="UTF-8" standalone="no"?>
<!-- Created with Inkscape (http://www.inkscape.org/) -->

<svg
   width="100"
   height="150"
   viewBox="0 0 100 150"
   version="1.1"
   id="pawn-icon"
   xml:space="preserve"
   xmlns:xlink="http://www.w3.org/1999/xlink"
   xmlns="http://www.w3.org/2000/svg"
   xmlns:svg="http://www.w3.org/2000/svg"><defs
     id="defs1" /><g
     id="layer1"
     style="display:inline">
     <g
       class="body-parts"
       style="display:inline"
       transform="translate(-0.87656311,0.08765631)"><rect
         style="fill:#060606;fill-opacity:1;stroke:#080b08;stroke-width:0.211667;stroke-opacity:1"
         id="rect2"
         width="29.516941"
         height="41.067051"
         x="71.097336"
         y="56.723866"
         ry="2.8619547" /><path
         style="fill:none;stroke:#000100;stroke-width:0.208086"
         d="m 73.133539,97.653399 6.418582,0.247986 c 0,0 5.648354,10.663385 0.256743,10.415395"
         id="path3" /><ellipse
         style="fill:none;stroke:#000100;stroke-width:0.219272"
         id="path5"
         cx="84.99823"
         cy="108.36557"
         rx="12.284566"
         ry="4.5334415" /><path
         style="fill:none;stroke:#000100;stroke-width:0.237584"
         d="m 99.454788,97.558865 -9.9172,0.181617 c 0,0 -4.626953,10.563618 0.827504,10.200388"
         id="path6" /><path
         style="fill:#fdfdfd;fill-opacity:1;stroke:#060606;stroke-width:0.503043;stroke-dasharray:none;stroke-opacity:0.97254902"
         d="m 80.525338,66.137293 1.55467,-6.10352 c 0,0 0.403064,-1.209188 1.61225,-0.748543 1.209188,0.460642 3.051759,1.439508 3.051759,1.439508 l 3.339661,-1.497089 c 0,0 0.921287,-0.287901 1.324348,0.921284 0.403064,1.209188 1.522503,6.226397 1.522503,6.226397 l 3.632808,1.896539 c 0,0 0.427389,0.427389 -0.213696,0.747932 -0.641083,0.32054 -3.151994,1.068472 -3.151994,1.068472 0,0 -4.389028,1.020601 -6.75557,0.813009 -2.366541,-0.207592 -5.106746,-0.249108 -7.22418,-1.079473 -2.117431,-0.830366 -1.909839,-0.747332 -1.909839,-0.747332 0,0 -1.328587,-0.373663 0.498218,-1.245547 1.826805,-0.871884 2.740207,-1.328584 2.740207,-1.328584 z"
         id="path7" /><path
         style="fill:#fbfbfb;fill-opacity:1;stroke:#050505;stroke-width:0.503043;stroke-dasharray:none;stroke-opacity:0.97254902"
         d="m 80.294751,70.291071 0.02939,0.881658 0.02939,0.117554 c 0,0 -0.587772,0.08816 -0.646549,0.440828 -0.05878,0.352663 -0.205719,1.616368 0,2.468636 0.205719,0.852268 0.734714,2.027812 0.734714,2.027812 l -3.081044,3.427333 4.134308,5.758503 -1.427322,1.968719 5.069451,6.939733 3.051514,0.04922 4.626488,-5.80772 c -2.66121,-1.085032 3.149953,-9.056105 3.149953,-9.056105 l -2.90386,-3.297603 c 0,0 1.279665,-2.264026 0.93514,-3.494476 -0.344524,-1.230451 -0.836705,-1.525757 -0.836705,-1.525757 l 0.04922,-1.132015 -0.984358,0.29531 0.04922,1.23045"
         id="path8" /><path
         style="fill:#fdfdfd;fill-opacity:1;stroke:#050505;stroke-width:0.503043;stroke-dasharray:none;stroke-opacity:0.97254902"
         d="m 81.269307,70.478338 v 0.917355 c 0,0 0.05396,0.229341 0.134905,0.175379 0.08094,-0.05396 1.578393,-0.229341 1.578393,-0.229341 l 1.483958,0.121415 c 0,0 1.295093,0.458679 1.456979,0.714999 0.161888,0.256321 1.537922,0.107924 1.537922,0.107924 l 0.712504,-0.543886 0.887696,-0.289467 c 0,0 2.944048,-0.210817 3.028434,0.168921 0.08439,0.379735 0.04219,-1.307984 0.04219,-1.307984 l 1.054825,-0.126579"
         id="path9" /><path
         style="fill:#fdfdfd;fill-opacity:1;stroke:#010101;stroke-width:0.603;stroke-dasharray:none;stroke-opacity:0.97254902"
         d="m 80.571413,72.465496 0.675087,0.421928 0.141401,1.33317 0.280257,0.896826 c 0,0 0.392361,0.966891 1.177084,1.149056 0.784722,0.182169 1.163071,0.140129 1.163071,0.140129 0,0 0.644591,0.07007 1.163069,-0.406374 0.518477,-0.476437 0.77071,-1.078992 0.77071,-1.078992 0,0 0.308284,-1.00893 0.280257,-1.078994 -0.02802,-0.07006 0.210195,-0.462426 0.210195,-0.462426 l 0.25223,-0.07006 0.378349,0.04204 c 0,0 0.196181,0.09809 0.224208,0.294269 0.02802,0.196181 0.405842,1.461963 0.570114,1.728904 0.164272,0.266944 0.677619,0.841894 1.129366,0.903494 0.451747,0.0616 0.985631,0.143738 0.985631,0.143738 0,0 1.170435,0.08214 1.66325,-0.841891 0.492816,-0.924029 0.657085,-2.156066 0.657085,-2.505142 0,-0.349078 0.761635,-0.517236 0.761635,-0.517236 l 0.04648,0.557728 -0.06972,1.045745 -0.232386,1.022503 c 0,0 -0.418298,0.743638 -0.557731,0.627444 -0.13943,-0.116192 -0.371819,1.254892 -0.371819,1.254892 0,0 -0.627446,2.370349 -0.743638,2.323872 -0.116194,-0.04648 -0.906311,1.928816 -1.556996,2.486544 -0.650684,0.557728 -1.580232,1.46404 -2.579497,1.440802 -0.999265,-0.02323 -1.789382,-0.325343 -1.859097,-0.464775 -0.06972,-0.139433 -1.46404,-0.92955 -2.068248,-2.161202 -0.604208,-1.231654 -1.440802,-3.392855 -1.46404,-3.741435 -0.02323,-0.348581 -0.162671,-1.022504 -0.162671,-1.022504 l -0.488305,-0.387945 c 0,0 -0.465397,-1.098336 -0.465397,-1.638194 0,-0.539861 -0.05585,-1.265878 -0.05585,-1.265878 z"
         id="path10" /><path
         style="fill:#fefefe;fill-opacity:1;stroke:#030303;stroke-width:0.7;stroke-dasharray:none;stroke-opacity:0.97254902"
         d="m 78.734836,82.877101 -2.908403,1.828142 c 0,0 -1.745043,2.326722 -1.828138,3.240791 -0.0831,0.914069 -0.581681,5.733708 -0.581681,5.733708 0,0 0.332388,0.664779 0.747874,0.664779 0.415485,0 9.971669,0.0831 9.971669,0.0831 l -4.985835,-7.063266 1.46834,-1.894533 z"
         id="path11" /><use
         id="use11"
         xlink:href="#path11"
         transform="matrix(-0.87426152,0.00103123,-0.08185343,1.0180214,170.92806,-1.8534851)"
         style="fill:#1a1a1a;fill-opacity:1;stroke:#050505;stroke-width:31.48313047;stroke-dasharray:none;stroke-opacity:0.97254902"
         x="0"
         y="0" /><path
         style="fill:#060606;fill-opacity:1;stroke:#080b08;stroke-width:0.275458;stroke-opacity:1"
         d="m 314.88244,425.90303 c -21.89437,-1.01705 -39.42487,-8.27919 -39.42487,-16.33205 0,-4.60165 5.79835,-9.16285 15.66665,-12.32397 4.14918,-1.32911 8.81793,-2.39196 13.08424,-2.97866 1.51501,-0.20835 3.23499,-0.45563 3.82218,-0.54953 l 1.0676,-0.17072 0.39576,2.39646 c 0.76722,4.64566 0.27086,8.41944 -1.38413,10.52342 -0.97707,1.24215 -3.18555,2.22515 -5.02046,2.23463 -1.25327,0.006 -1.46337,0.11107 -1.46337,0.72852 0,0.67045 0.12664,0.70425 1.80769,0.48254 3.83709,-0.50607 6.00029,-2.21979 7.00155,-5.54672 0.53274,-1.77016 0.61209,-6.19634 0.15979,-8.91317 -0.15764,-0.94689 -0.22058,-1.79146 -0.13988,-1.87684 0.29387,-0.31087 10.41177,-0.59398 15.35947,-0.42977 l 5.07875,0.16855 v 2.81929 c 0,7.82661 2.70302,11.76659 8.52197,12.4218 2.04185,0.22991 2.15201,0.20479 2.15201,-0.49081 0,-0.61727 -0.20404,-0.73342 -1.29121,-0.73503 -3.56348,-0.005 -6.45562,-2.13487 -7.45089,-5.48631 -0.74322,-2.50269 -0.77808,-8.28465 -0.0499,-8.28465 0.27756,0 2.2531,0.24207 4.39011,0.53793 12.94705,1.79249 23.31069,5.72962 27.61075,10.48926 3.04265,3.36786 3.04265,6.5997 0,9.96756 -6.91175,7.65047 -27.70181,12.37914 -49.89376,11.34827 z"
         id="path14"
         transform="scale(0.26458333)" /><path
         style="fill:#060606;fill-opacity:1;stroke:#080b08;stroke-width:0.275458;stroke-opacity:1"
         d="m 309.88977,391.92691 c 0,-1.12924 -3.58677,-11.11548 -5.6588,-15.75516 -1.2686,-2.84066 -2.39027,-5.35851 -2.49258,-5.59523 -0.14746,-0.34119 3.52209,-0.43041 17.70287,-0.43041 h 17.88889 l -1.52757,4.20983 c -1.84006,5.07104 -3.64516,11.53998 -4.22758,15.15039 l -0.42701,2.64702 -6.75549,-0.1838 c -3.71552,-0.10109 -8.49862,-0.0524 -10.62911,0.10821 -3.07886,0.23211 -3.87362,0.20116 -3.87362,-0.15085 z"
         id="path15"
         transform="scale(0.26458333)" /></g></g></svg>
