<?xml version="1.0" encoding="UTF-8" standalone="no"?>
<!-- Created with Inkscape (http://www.inkscape.org/) -->

<svg
   width="32mm"
   height="32mm"
   viewBox="0 0 32 32"
   version="1.1"
   id="svg1"
   xml:space="preserve"
   inkscape:version="1.4 (e7c3feb1, 2024-10-09)"
   sodipodi:docname="taxi-icon.svg"
   xmlns:inkscape="http://www.inkscape.org/namespaces/inkscape"
   xmlns:sodipodi="http://sodipodi.sourceforge.net/DTD/sodipodi-0.dtd"
   xmlns:xlink="http://www.w3.org/1999/xlink"
   xmlns="http://www.w3.org/2000/svg"
   xmlns:svg="http://www.w3.org/2000/svg"><sodipodi:namedview
     id="namedview1"
     pagecolor="#ffffff"
     bordercolor="#000000"
     borderopacity="0.25"
     inkscape:showpageshadow="2"
     inkscape:pageopacity="0.0"
     inkscape:pagecheckerboard="0"
     inkscape:deskcolor="#d1d1d1"
     inkscape:document-units="mm"
     inkscape:zoom="3.0158188"
     inkscape:cx="97.983341"
     inkscape:cy="93.506945"
     inkscape:window-width="1792"
     inkscape:window-height="1067"
     inkscape:window-x="0"
     inkscape:window-y="25"
     inkscape:window-maximized="1"
     inkscape:current-layer="layer1"
     showgrid="false" /><defs
     id="defs1" /><g
     inkscape:label="Layer 1"
     inkscape:groupmode="layer"
     id="layer1"
     style="display:inline">
       <rect
       style="fill:none;stroke:#020a01;stroke-width:0.2;stroke-dasharray:none;stroke-opacity:1"
       id="rect1"
       width="29.926004"
       height="12.74507"
       x="1.0369986"
       y="14.555417"
       ry="3.6599262" /><path
       style="fill:#ffffff;stroke:#020a01;stroke-width:0.777287;stroke-dasharray:none;stroke-opacity:1"
       id="path1"
       sodipodi:type="arc"
       sodipodi:cx="6.8897605"
       sodipodi:cy="20.985313"
       sodipodi:rx="1.8693341"
       sodipodi:ry="2.1387289"
       sodipodi:start="3.1611652"
       sodipodi:end="3.1602799"
       sodipodi:arc-type="arc"
       d="M 5.0207844,20.943456 A 1.8693341,2.1387289 0 0 1 6.9259321,18.846985 1.8693341,2.1387289 0 0 1 8.7587526,21.026225 1.8693341,2.1387289 0 0 1 6.8544162,23.12366 1.8693341,2.1387289 0 0 1 5.0207528,20.945349"
       sodipodi:open="true" /><path
       style="fill:#ffffff;stroke:#020a01;stroke-width:0.777287;stroke-dasharray:none;stroke-opacity:1"
       id="path2"
       sodipodi:type="arc"
       sodipodi:cx="24.881428"
       sodipodi:cy="20.985313"
       sodipodi:rx="1.8693341"
       sodipodi:ry="2.1387289"
       sodipodi:start="3.1611652"
       sodipodi:end="3.1602799"
       sodipodi:arc-type="arc"
       d="m 23.012452,20.943456 a 1.8693341,2.1387289 0 0 1 1.905147,-2.096471 1.8693341,2.1387289 0 0 1 1.832821,2.17924 1.8693341,2.1387289 0 0 1 -1.904337,2.097435 1.8693341,2.1387289 0 0 1 -1.833663,-2.178311"
       sodipodi:open="true" /><path
       style="fill:#ffffff;stroke:#020a01;stroke-width:0.499999;stroke-dasharray:none;stroke-opacity:1"
       d="m 2.9984137,26.88599 -0.055036,3.135094 c 0,0 0.03664,1.013696 0.9159891,1.062549 0.8793496,0.04885 3.3830528,0.07328 4.1646968,-0.03665 0.7816439,-0.109919 0.9282021,-0.622874 0.9404153,-0.891564 0.012213,-0.268689 0.061066,-2.821245 0.061066,-2.821245"
       id="path3"
       sodipodi:nodetypes="ccsssc" /><path
       style="fill:#ffffff;stroke:#020a01;stroke-width:0.499999;stroke-dasharray:none;stroke-opacity:1"
       d="m 23.076138,27.212052 -0.02443,2.809032 c 0,0 0.03664,1.013696 0.915989,1.062549 0.87935,0.04885 3.383053,0.07328 4.164697,-0.03665 0.781644,-0.109919 0.928202,-0.622874 0.940415,-0.891564 0.01221,-0.268689 -0.05535,-3.27777 -0.05535,-3.27777"
       id="path5"
       sodipodi:nodetypes="ccsssc" /><path
       style="fill:none;stroke:#020a01;stroke-width:0.499999;stroke-dasharray:none;stroke-opacity:1"
       d="m 2.8755921,15.037113 c 0,0 2.2513052,-9.3113474 3.9164512,-9.3551669 1.6651461,-0.04382 18.6671647,-0.029213 18.6671647,-0.029213 0,0 0.671901,0.219098 1.22695,1.6797525 0.555048,1.4606545 2.854164,7.9821514 2.854164,7.9821514"
       id="path6"
       sodipodi:nodetypes="cscsc" /><path
       style="fill:none;stroke:#020a01;stroke-width:0.384598;stroke-dasharray:none;stroke-opacity:1"
       d="m 5.9341912,14.555417 c 0,0 1.0026166,-5.6928609 2.4106101,-5.7235225 1.4079937,-0.030662 15.7843507,-0.020441 15.7843507,-0.020441 0,0 0.568137,0.1533086 1.037468,1.1753659 0.469332,1.0220576 1.462499,4.5685976 1.462499,4.5685976"
       id="path7"
       sodipodi:nodetypes="cscsc" /><path
       style="fill:none;stroke:#020a01;stroke-width:0.499999;stroke-dasharray:none;stroke-opacity:1"
       d="m 11.199998,4.9202998 0.914286,-3.6210519 7.735336,0.01203 1.022557,3.6330821 z"
       id="path8" /><text
       xml:space="preserve"
       style="font-size:2.29408px;font-family:Sans;-inkscape-font-specification:'Sans, Normal';text-align:start;writing-mode:lr-tb;direction:ltr;text-anchor:start;fill:none;stroke:#020a01;stroke-width:0.314306;stroke-dasharray:none;stroke-dashoffset:0;stroke-opacity:1"
       x="22.717758"
       y="3.3617344"
       id="text8"
       transform="scale(0.81973455,1.2199071)"><tspan
         sodipodi:role="line"
         id="tspan12"
         style="font-size:2.29408px;text-align:center;text-anchor:middle;stroke:#020a01;stroke-width:0.314306;stroke-dasharray:none;stroke-dashoffset:0;stroke-opacity:1;paint-order:fill markers stroke"
         x="22.717758"
         y="3.3617344">TAXI</tspan></text><path
       style="fill:#ffd700;fill-opacity:1;stroke:#030a01;stroke-width:0.30948;stroke-dasharray:none;stroke-opacity:1"
       d="m 15.419645,98.901525 c -3.390827,-0.820934 -6.4209273,-3.879272 -7.2256154,-7.292948 -0.3668292,-1.556176 -0.3668292,-23.462718 0,-25.018894 0.616248,-2.614269 2.5976014,-5.151379 4.9983904,-6.400407 2.390505,-1.243677 -1.609407,-1.146405 47.252096,-1.149099 43.190274,-0.0024 43.924684,0.0028 45.169034,0.321091 3.39144,0.867385 6.00126,3.433046 7.08393,6.964089 0.28064,0.915287 0.30128,1.790337 0.30128,12.773773 0,10.983437 -0.0206,11.858486 -0.30128,12.773773 -0.52336,1.70688 -1.41068,3.191107 -2.64395,4.422537 -1.3334,1.331408 -2.64587,2.082696 -4.43998,2.541553 -1.24493,0.318398 -1.96,0.323294 -45.250918,0.309867 C 23.035631,99.135282 16.231754,99.09814 15.419645,98.901525 Z M 28.331572,88.587477 c 3.47362,-0.978687 6.061544,-4.595927 6.261116,-8.751399 0.147368,-3.068509 -0.797052,-5.632825 -2.805635,-7.617933 -1.769388,-1.748711 -3.58323,-2.546738 -5.741675,-2.526138 -6.273552,0.05988 -10.382215,7.21293 -7.849105,13.665047 0.401476,1.022606 1.641241,2.785179 2.475697,3.519697 1.012466,0.891208 2.848004,1.774516 4.056744,1.952209 1.150916,0.169194 2.455643,0.08174 3.602858,-0.241483 z m 67.795123,0.06115 c 1.971887,-0.500986 4.242625,-2.364222 5.289615,-4.340348 1.10687,-2.089146 1.5033,-5.269178 0.93601,-7.508409 -0.42448,-1.675519 -1.42584,-3.488339 -2.544615,-4.606643 -5.336298,-5.334065 -13.72797,-1.611348 -14.340841,6.361891 -0.359769,4.680456 2.692927,9.318336 6.651688,10.105734 0.495393,0.09853 1.048104,0.209626 1.228247,0.24687 0.435345,0.09001 1.968123,-0.05285 2.779896,-0.259095 z"
       id="path9"
       transform="scale(0.26458333)" /><path
       style="fill:#ffd700;fill-opacity:1;stroke:#030a01;stroke-width:0.282;stroke-dasharray:none;stroke-opacity:1"
       d="M 4.2246592,30.822288 C 3.6062356,30.790239 3.481052,30.733214 3.3335214,30.416351 3.2293583,30.19263 3.2289175,30.185442 3.2284961,28.703201 l -4.234e-4,-1.488485 0.5741205,0.02548 c 0.3157661,0.01402 1.2565652,0.03579 2.0906647,0.04837 0.8340992,0.01259 1.8187699,0.03461 2.1881568,0.04895 l 0.6716125,0.02606 -0.030724,1.433285 c -0.019889,0.927806 -0.048612,1.47647 -0.081447,1.555739 -0.0696,0.168032 -0.2680621,0.32556 -0.4831072,0.383464 -0.401905,0.108222 -2.5846034,0.156064 -3.9326896,0.0862 z"
       id="path10" /><path
       style="fill:#ffd700;fill-opacity:1;stroke:#030a01;stroke-width:0.282;stroke-dasharray:none;stroke-opacity:1"
       d="m 24.329703,30.822288 c -0.583029,-0.03022 -0.710811,-0.08261 -0.867063,-0.355541 l -0.107858,-0.1884 -0.01289,-1.525487 -0.01289,-1.525484 0.727832,0.02109 c 0.400308,0.01159 1.642835,0.04019 2.761172,0.06355 1.118335,0.02336 2.036228,0.04714 2.03976,0.05285 0.0035,0.0057 -0.0084,0.657238 -0.02653,1.447832 -0.03558,1.551918 -0.04298,1.598906 -0.281667,1.786654 -0.06316,0.04969 -0.194054,0.111668 -0.290865,0.137737 -0.398431,0.107286 -2.587094,0.154749 -3.929004,0.0852 z"
       id="path11" /><path
       style="fill:#ffd700;fill-opacity:1;stroke:#030a01;stroke-width:1.06582678;stroke-dasharray:none;stroke-opacity:1"
       d="m 107.4307,51.549052 c -1.19402,-0.324606 -2.01032,-0.417769 -4.29886,-0.490621 -1.55374,-0.04946 -2.82497,-0.115486 -2.82497,-0.146723 0,-0.203989 -2.274309,-7.50007 -3.023679,-9.700095 C 95.84832,36.999072 94.985594,35.342036 93.450183,33.849552 93.051201,33.461724 92.442035,33.000175 92.09648,32.823886 91.478553,32.508643 90.968126,32.50407 61.128132,32.546428 l -30.340065,0.04307 -0.676062,0.361627 c -2.439183,1.304726 -4.841429,6.494037 -7.008199,15.139052 l -0.7121,2.841148 -3.580719,0.09889 c -1.969396,0.05439 -3.979546,0.183711 -4.466999,0.287379 -0.487454,0.103667 -0.913746,0.161021 -0.947316,0.127451 -0.03357,-0.03357 0.419143,-1.727791 1.006029,-3.764934 3.8028,-13.19993 7.502696,-22.092859 10.208921,-24.53777 l 0.631294,-0.570337 5.310954,-0.108677 c 2.921024,-0.05977 18.861104,-0.1088 35.422398,-0.108951 l 30.111446,-2.75e-4 1.007763,1.027799 c 1.389587,1.417216 1.961227,2.59613 4.907453,10.120838 2.06291,5.268703 5.39664,13.710696 6.99568,17.715176 0.35987,0.901211 0.45508,0.881104 -1.56791,0.331137 z"
       id="path12"
       transform="scale(0.26458333)" /><path
       style="fill:#ffd700;fill-opacity:1;stroke:#000000;stroke-width:0.403778;stroke-dasharray:none;paint-order:fill markers stroke"
       d=""
       id="path13"
       transform="scale(0.26458333)" /><path
       style="fill:#ffd700;fill-opacity:1;stroke:#000000;stroke-width:2.45669294;stroke-dasharray:none;paint-order:fill markers stroke"
       d="M 16.536296,102.66924 C 10.814721,102.11086 6.3136672,98.251182 4.7425462,92.556026 L 4.4641711,91.546945 V 79.097567 66.648188 L 4.7474539,65.619885 C 5.4230784,63.1674 6.6451923,61.04194 8.3476566,59.358533 c 1.1056205,-1.093244 2.9064414,-2.367261 3.2332184,-2.287387 0.11021,0.02694 0.262129,-0.04989 0.337597,-0.170737 0.1782,-0.285343 1.970175,-0.93077 3.382141,-1.218167 1.05557,-0.214855 3.271707,-0.225919 45.248637,-0.225919 h 44.13871 l 1.20955,0.269528 c 5.04221,1.12357 8.89575,4.798678 10.26591,9.790575 l 0.34516,1.257513 v 12.323628 12.323627 l -0.33717,1.220518 c -0.90449,3.274249 -2.85902,6.031269 -5.54066,7.815568 -1.9477,1.29596 -3.93209,1.98657 -6.37336,2.21808 -1.59016,0.15079 -86.173677,0.14489 -87.721094,-0.006 z m 82.932981,-3.381535 c 5.561723,-0.09316 5.890443,-0.11169 6.727693,-0.379285 3.04737,-0.973977 5.44808,-3.391554 6.6233,-6.669843 l 0.29302,-0.817383 V 79.097567 66.773939 l -0.29017,-0.803444 c -1.20489,-3.336185 -3.39416,-5.568823 -6.5004,-6.629186 l -1.00601,-0.343417 -5.784557,-0.0944 c -8.182904,-0.133532 -68.420271,-0.124248 -76.582541,0.0118 -3.734814,0.06225 -7.186687,0.173362 -7.670829,0.246908 -1.6082,0.244301 -3.764766,1.588235 -5.092928,3.173822 -0.9244946,1.103682 -1.4768095,2.04781 -1.9219236,3.285338 l -0.369326,1.02682 -0.134293,6.246434 c -0.096158,4.472663 -0.095282,8.007858 0.00309,12.449379 l 0.1373799,6.202944 0.3334871,0.965558 c 0.9930864,2.875321 3.4162846,5.295047 6.4240136,6.414811 0.742784,0.276535 0.797413,0.278171 11.749493,0.351951 16.795645,0.113146 66.467645,0.118884 73.061504,0.0084 z"
       id="path14"
       transform="scale(0.26458333)" /><path
       style="fill:#ffd700;fill-opacity:1;stroke:#000000;stroke-width:0.164417;stroke-dasharray:none;paint-order:fill markers stroke"
       d="m 12.572924,54.187312 c 0.207108,-0.792554 0.446729,-1.687979 0.532491,-1.989832 l 0.155931,-0.548825 1.226895,-0.136134 c 1.404018,-0.155788 5.017041,-0.338331 6.753554,-0.341214 1.069535,-0.0018 1.171412,0.01534 1.121036,0.188368 -0.03048,0.104677 -0.186195,0.856424 -0.346041,1.670549 l -0.290629,1.480228 -2.788002,0.06035 c -3.049026,0.066 -4.014501,0.190257 -5.662447,0.728781 -0.55329,0.180806 -1.022489,0.328739 -1.042665,0.328739 -0.02018,0 0.132768,-0.648453 0.339877,-1.441007 z"
       id="path15"
       transform="scale(0.26458333)" /><path
       style="fill:#ffd700;fill-opacity:1;stroke:#000000;stroke-width:0.164417;stroke-dasharray:none;paint-order:fill markers stroke"
       d="m 109.27392,55.937226 c -1.67027,-0.835216 -3.55344,-1.249667 -6.23415,-1.372024 l -1.72673,-0.07881 -0.46404,-1.624188 c -0.25523,-0.893303 -0.44281,-1.645422 -0.41686,-1.671376 0.082,-0.08201 5.08499,0.186969 5.76738,0.310081 0.35889,0.06475 1.02792,0.219009 1.48673,0.342799 l 0.8342,0.225072 0.72844,2.056904 c 0.40065,1.131297 0.71042,2.071823 0.68838,2.090058 -0.022,0.01824 -0.32055,-0.107096 -0.66335,-0.278513 z"
       id="path16"
       transform="scale(0.26458333)" /><path
       style="fill:#ffd700;fill-opacity:1;stroke:#000000;stroke-width:0.0473239;stroke-dasharray:none;paint-order:fill markers stroke"
       d="m 107.97886,103.21854 c -0.89848,-0.0297 -4.13833,-0.10859 -6.98051,-0.16996 -4.847858,-0.10468 -8.01228,-0.17815 -8.021482,-0.18623 -0.0044,-0.004 2.411404,-0.0162 5.368423,-0.0275 2.957019,-0.0113 5.580649,-0.0342 5.830289,-0.051 1.36686,-0.0918 3.01494,-0.47806 4.19554,-0.98341 l 0.32771,-0.14027 0.0195,0.4438 c 0.0289,0.65575 0.0306,1.14877 0.004,1.1432 -0.0129,-0.003 -0.34746,-0.0156 -0.74344,-0.0287 z"
       id="path17"
       transform="scale(0.26458333)" /><path
       style="fill:#ffd700;fill-opacity:1;stroke:#000000;stroke-width:0.0379321;stroke-dasharray:none;paint-order:fill markers stroke"
       d="m 31.513639,103.19573 c -2.030852,-0.0847 -4.609702,-0.14759 -9.19566,-0.22439 -4.772926,-0.0799 -6.526906,-0.1248 -9.017495,-0.23074 l -1.038724,-0.0442 0.01691,-0.48834 c 0.0093,-0.2686 0.0217,-0.49314 0.02754,-0.49899 0.0058,-0.006 0.172105,0.0543 0.36946,0.1337 1.386884,0.55785 2.893951,0.8916 4.247851,0.94072 0.344994,0.0125 2.953149,0.0349 5.7959,0.0498 l 5.168638,0.0271 2.371051,0.17469 c 1.304077,0.0961 2.404922,0.1785 2.446321,0.18315 0.173363,0.0195 -0.480289,0.007 -1.191798,-0.0225 z"
       id="path18"
       transform="scale(0.26458333)" /></g></svg>
