<?xml version="1.0" encoding="UTF-8" standalone="no"?>
<!-- Created with Inkscape (http://www.inkscape.org/) -->

<svg
   width="32mm"
   height="32mm"
   viewBox="0 0 32 32"
   version="1.1"
   id="svg1"
   xml:space="preserve"
   inkscape:version="1.4 (e7c3feb1, 2024-10-09)"
   sodipodi:docname="taxi-icon.svg"
   xmlns:inkscape="http://www.inkscape.org/namespaces/inkscape"
   xmlns:sodipodi="http://sodipodi.sourceforge.net/DTD/sodipodi-0.dtd"
   xmlns:xlink="http://www.w3.org/1999/xlink"
   xmlns="http://www.w3.org/2000/svg"
   xmlns:svg="http://www.w3.org/2000/svg"><sodipodi:namedview
     id="namedview1"
     pagecolor="#ffffff"
     bordercolor="#000000"
     borderopacity="0.25"
     inkscape:showpageshadow="2"
     inkscape:pageopacity="0.0"
     inkscape:pagecheckerboard="0"
     inkscape:deskcolor="#d1d1d1"
     inkscape:document-units="mm"
     inkscape:zoom="3.7441662"
     inkscape:cx="79.991108"
     inkscape:cy="34.453599"
     inkscape:window-width="1792"
     inkscape:window-height="1067"
     inkscape:window-x="0"
     inkscape:window-y="25"
     inkscape:window-maximized="1"
     inkscape:current-layer="layer1" /><defs
     id="defs1" /><g
     inkscape:label="Layer 1"
     inkscape:groupmode="layer"
     id="layer1"
     style="display:inline">
       <rect
       style="fill:none;stroke:#020a01;stroke-width:2.07399;stroke-dasharray:none;stroke-opacity:1"
       id="rect1"
       width="29.926004"
       height="12.74507"
       x="1.0369986"
       y="14.555417"
       ry="3.6599262" /><path
       style="fill:#ffffff;stroke:#020a01;stroke-width:0.777287;stroke-dasharray:none;stroke-opacity:1"
       id="path1"
       sodipodi:type="arc"
       sodipodi:cx="6.8897605"
       sodipodi:cy="20.985313"
       sodipodi:rx="1.8693341"
       sodipodi:ry="2.1387289"
       sodipodi:start="3.1611652"
       sodipodi:end="3.1602799"
       sodipodi:arc-type="arc"
       d="M 5.0207844,20.943456 A 1.8693341,2.1387289 0 0 1 6.9259321,18.846985 1.8693341,2.1387289 0 0 1 8.7587526,21.026225 1.8693341,2.1387289 0 0 1 6.8544162,23.12366 1.8693341,2.1387289 0 0 1 5.0207528,20.945349"
       sodipodi:open="true" /><path
       style="fill:#ffffff;stroke:#020a01;stroke-width:0.777287;stroke-dasharray:none;stroke-opacity:1"
       id="path2"
       sodipodi:type="arc"
       sodipodi:cx="24.881428"
       sodipodi:cy="20.985313"
       sodipodi:rx="1.8693341"
       sodipodi:ry="2.1387289"
       sodipodi:start="3.1611652"
       sodipodi:end="3.1602799"
       sodipodi:arc-type="arc"
       d="m 23.012452,20.943456 a 1.8693341,2.1387289 0 0 1 1.905147,-2.096471 1.8693341,2.1387289 0 0 1 1.832821,2.17924 1.8693341,2.1387289 0 0 1 -1.904337,2.097435 1.8693341,2.1387289 0 0 1 -1.833663,-2.178311"
       sodipodi:open="true" /><path
       style="fill:#ffffff;stroke:#020a01;stroke-width:0.499999;stroke-dasharray:none;stroke-opacity:1"
       d="m 2.9678045,27.741219 -0.024427,2.809032 c 0,0 0.03664,1.013696 0.9159891,1.062549 0.8793496,0.04885 3.3830528,0.07328 4.1646968,-0.03665 0.7816439,-0.109919 0.9282021,-0.622874 0.9404153,-0.891564 0.012213,-0.268689 0.061066,-2.821245 0.061066,-2.821245"
       id="path3"
       sodipodi:nodetypes="ccsssc" /><path
       style="fill:#ffffff;stroke:#020a01;stroke-width:0.499999;stroke-dasharray:none;stroke-opacity:1"
       d="m 2.9678045,27.741219 -0.024427,2.809032 c 0,0 0.03664,1.013696 0.9159891,1.062549 0.8793496,0.04885 3.3830528,0.07328 4.1646968,-0.03665 0.7816439,-0.109919 0.9282021,-0.622874 0.9404153,-0.891564 0.012213,-0.268689 0.061066,-2.821245 0.061066,-2.821245"
       id="path4"
       sodipodi:nodetypes="ccsssc" /><path
       style="fill:#ffffff;stroke:#020a01;stroke-width:0.499999;stroke-dasharray:none;stroke-opacity:1"
       d="m 23.076138,27.741219 -0.02443,2.809032 c 0,0 0.03664,1.013696 0.915989,1.062549 0.87935,0.04885 3.383053,0.07328 4.164697,-0.03665 0.781644,-0.109919 0.928202,-0.622874 0.940415,-0.891564 0.01221,-0.268689 0.06107,-2.821245 0.06107,-2.821245"
       id="path5"
       sodipodi:nodetypes="ccsssc" /><path
       style="fill:none;stroke:#020a01;stroke-width:0.499999;stroke-dasharray:none;stroke-opacity:1"
       d="m 2.8755921,15.037113 c 0,0 2.2513052,-9.3113474 3.9164512,-9.3551669 1.6651461,-0.04382 18.6671647,-0.029213 18.6671647,-0.029213 0,0 0.671901,0.219098 1.22695,1.6797525 0.555048,1.4606545 2.919001,7.4083784 2.919001,7.4083784"
       id="path6"
       sodipodi:nodetypes="cscsc" /><path
       style="fill:none;stroke:#020a01;stroke-width:0.384598;stroke-dasharray:none;stroke-opacity:1"
       d="m 5.9341912,14.555417 c 0,0 1.0026166,-5.6928609 2.4106101,-5.7235225 1.4079937,-0.030662 15.7843507,-0.020441 15.7843507,-0.020441 0,0 0.568137,0.1533086 1.037468,1.1753659 0.469332,1.0220576 1.462499,4.5685976 1.462499,4.5685976"
       id="path7"
       sodipodi:nodetypes="cscsc" /><path
       style="fill:none;stroke:#020a01;stroke-width:0.499999;stroke-dasharray:none;stroke-opacity:1"
       d="m 11.199998,4.9202998 0.914286,-3.6210519 7.735336,0.01203 1.022557,3.6330821 z"
       id="path8" /><text
       xml:space="preserve"
       style="font-size:2.29408px;font-family:Sans;-inkscape-font-specification:'Sans, Normal';text-align:start;writing-mode:lr-tb;direction:ltr;text-anchor:start;fill:none;stroke:#020a01;stroke-width:0.314306;stroke-dasharray:none;stroke-dashoffset:0;stroke-opacity:1"
       x="19.490086"
       y="3.3617344"
       id="text8"
       transform="scale(0.81973455,1.2199071)"><tspan
         sodipodi:role="line"
         id="tspan12"
         style="font-size:2.29408px;text-align:center;text-anchor:middle;stroke:#020a01;stroke-width:0.314306;stroke-dasharray:none;stroke-dashoffset:0;stroke-opacity:1;paint-order:fill markers stroke"
         x="19.490086"
         y="3.3617344">T A X I</tspan></text><path
       style="fill:#000000;fill-opacity:1;stroke:#030a01;stroke-width:0.30948;stroke-dasharray:none;stroke-opacity:1"
       d="m 15.419645,98.901525 c -3.390827,-0.820934 -6.4209273,-3.879272 -7.2256154,-7.292948 -0.3668292,-1.556176 -0.3668292,-23.462718 0,-25.018894 0.616248,-2.614269 2.5976014,-5.151379 4.9983904,-6.400407 2.390505,-1.243677 -1.609407,-1.146405 47.252096,-1.149099 43.190274,-0.0024 43.924684,0.0028 45.169034,0.321091 3.39144,0.867385 6.00126,3.433046 7.08393,6.964089 0.28064,0.915287 0.30128,1.790337 0.30128,12.773773 0,10.983437 -0.0206,11.858486 -0.30128,12.773773 -0.52336,1.70688 -1.41068,3.191107 -2.64395,4.422537 -1.3334,1.331408 -2.64587,2.082696 -4.43998,2.541553 -1.24493,0.318398 -1.96,0.323294 -45.250918,0.309867 C 23.035631,99.135282 16.231754,99.09814 15.419645,98.901525 Z M 28.331572,88.587477 c 3.47362,-0.978687 6.061544,-4.595927 6.261116,-8.751399 0.147368,-3.068509 -0.797052,-5.632825 -2.805635,-7.617933 -1.769388,-1.748711 -3.58323,-2.546738 -5.741675,-2.526138 -6.273552,0.05988 -10.382215,7.21293 -7.849105,13.665047 0.401476,1.022606 1.641241,2.785179 2.475697,3.519697 1.012466,0.891208 2.848004,1.774516 4.056744,1.952209 1.150916,0.169194 2.455643,0.08174 3.602858,-0.241483 z m 67.795123,0.06115 c 1.971887,-0.500986 4.242625,-2.364222 5.289615,-4.340348 1.10687,-2.089146 1.5033,-5.269178 0.93601,-7.508409 -0.42448,-1.675519 -1.42584,-3.488339 -2.544615,-4.606643 -5.336298,-5.334065 -13.72797,-1.611348 -14.340841,6.361891 -0.359769,4.680456 2.692927,9.318336 6.651688,10.105734 0.495393,0.09853 1.048104,0.209626 1.228247,0.24687 0.435345,0.09001 1.968123,-0.05285 2.779896,-0.259095 z"
       id="path9"
       transform="scale(0.26458333)" /><path
       style="fill:#000000;fill-opacity:1;stroke:#030a01;stroke-width:0.30948;stroke-dasharray:none;stroke-opacity:1"
       d="m 15.967216,118.49369 c -2.337349,-0.12113 -2.810484,-0.33666 -3.36808,-1.53425 -0.393687,-0.84556 -0.395353,-0.87273 -0.396946,-6.4749 l -0.0016,-5.62577 2.169904,0.0963 c 1.193447,0.053 4.749223,0.13526 7.901725,0.18283 3.152501,0.0476 6.874091,0.13081 8.270199,0.18501 l 2.538378,0.0985 -0.116121,5.41714 c -0.07517,3.50667 -0.183731,5.58036 -0.307833,5.87996 -0.263054,0.63508 -1.013148,1.23046 -1.825917,1.44931 -1.519011,0.40903 -9.76858,0.58985 -14.863709,0.32579 z"
       id="path10"
       transform="scale(0.26458333)" /><path
       style="fill:#000000;fill-opacity:1;stroke:#030a01;stroke-width:0.30948;stroke-dasharray:none;stroke-opacity:1"
       d="m 91.954786,118.49369 c -2.203577,-0.1142 -2.686532,-0.31223 -3.277089,-1.34378 l -0.407653,-0.71206 -0.04872,-5.76562 -0.04872,-5.76561 2.750862,0.0797 c 1.512974,0.0438 6.209137,0.15191 10.435924,0.24019 4.22678,0.0883 7.69598,0.17817 7.70933,0.19976 0.0134,0.0216 -0.0318,2.48405 -0.10026,5.47212 -0.13446,5.86552 -0.16246,6.04311 -1.06457,6.75271 -0.23873,0.18779 -0.73343,0.42205 -1.09933,0.52058 -1.50588,0.40549 -9.777994,0.58488 -14.849778,0.32203 z"
       id="path11"
       transform="scale(0.26458333)" /><path
       style="fill:#000000;fill-opacity:1;stroke:#030a01;stroke-width:0.30948;stroke-dasharray:none;stroke-opacity:1"
       d="m 107.4307,51.549052 c -1.19402,-0.324606 -2.01032,-0.417769 -4.29886,-0.490621 -1.55374,-0.04946 -2.82497,-0.115486 -2.82497,-0.146723 0,-0.203989 -2.274309,-7.50007 -3.023679,-9.700095 C 95.84832,36.999072 94.985594,35.342036 93.450183,33.849552 93.051201,33.461724 92.442035,33.000175 92.09648,32.823886 91.478553,32.508643 90.968126,32.50407 61.128132,32.546428 l -30.340065,0.04307 -0.676062,0.361627 c -2.439183,1.304726 -4.841429,6.494037 -7.008199,15.139052 l -0.7121,2.841148 -3.580719,0.09889 c -1.969396,0.05439 -3.979546,0.183711 -4.466999,0.287379 -0.487454,0.103667 -0.913746,0.161021 -0.947316,0.127451 -0.03357,-0.03357 0.419143,-1.727791 1.006029,-3.764934 3.8028,-13.19993 7.502696,-22.092859 10.208921,-24.53777 l 0.631294,-0.570337 5.310954,-0.108677 c 2.921024,-0.05977 18.861104,-0.1088 35.422398,-0.108951 l 30.111446,-2.75e-4 1.007763,1.027799 c 1.389587,1.417216 1.961227,2.59613 4.907453,10.120838 2.06291,5.268703 5.39664,13.710696 6.99568,17.715176 0.35987,0.901211 0.45508,0.881104 -1.56791,0.331137 z"
       id="path12"
       transform="scale(0.26458333)" /><path
       style="fill:#000000;fill-opacity:1;stroke:#020a01;stroke-width:0;stroke-dasharray:none;stroke-dashoffset:0;stroke-opacity:1;paint-order:fill markers stroke"
       d="m 14.332369,120.25113 c -1.550557,-0.21469 -2.590301,-0.97561 -3.339347,-2.44386 -0.557337,-1.09247 -0.638495,-1.95496 -0.638495,-6.78548 v -5.53393 L 7.9345363,103.80547 C 4.5685493,101.46542 2.5279762,98.830769 1.0756572,94.949731 0.38882503,93.114311 0.35061383,92.439212 0.23974705,80.181299 0.14174937,69.346243 0.204809,66.98591 0.64272846,65.097639 1.7431146,60.352865 4.8698703,56.127682 9.1202497,53.641968 l 2.1131093,-1.235793 1.068975,-3.850457 c 2.513068,-9.052094 5.550753,-17.502503 7.95676,-22.134576 1.717922,-3.307364 3.287163,-5.108741 4.82166,-5.534925 0.79764,-0.221532 13.256194,-0.338484 36.185825,-0.339686 34.605573,-0.0018 34.980631,0.0051 36.052462,0.667559 2.012503,1.243794 3.300959,3.867979 8.970519,18.270091 5.12007,13.006305 5.61485,14.108029 6.65302,14.81433 3.59524,2.445963 6.50038,6.724795 7.37813,10.866879 0.68468,3.23104 0.67754,25.018672 -0.009,27.930983 -0.96604,4.096984 -3.36517,7.851477 -6.48442,10.147747 -1.05653,0.77777 -2.21415,1.50718 -2.5725,1.62092 -0.35834,0.11373 -0.56482,0.34707 -0.45886,0.51853 0.10597,0.17146 0.0864,2.91182 -0.0435,6.08968 -0.22689,5.5515 -0.26908,5.81706 -1.07652,6.77666 -1.41307,1.67933 -2.58897,1.9619 -8.93304,2.14655 -3.16853,0.0922 -7.0625,0.0593 -8.653268,-0.0732 -2.530502,-0.21079 -3.026059,-0.35837 -3.961553,-1.17974 -1.4805,-1.2999 -1.8402,-2.83028 -1.8402,-7.82936 v -4.31734 H 60.690956 35.094182 l -0.203747,1.23269 c -0.112062,0.67797 -0.205378,2.83746 -0.207367,4.79887 -0.0045,4.47692 -0.448315,5.59394 -2.609668,6.56876 -1.361288,0.61397 -2.215235,0.684 -9.063339,0.74328 -4.158247,0.036 -8.063208,-0.004 -8.677692,-0.0892 z m 15.888116,-1.72604 c 2.584673,-0.42419 2.70542,-0.7235 2.983368,-7.39522 0.204297,-4.90384 0.317641,-5.76446 0.775259,-5.88635 0.294788,-0.0785 -1.843963,-0.15992 -4.752781,-0.1809 -2.908819,-0.021 -8.234005,-0.10748 -11.833746,-0.19224 -3.599742,-0.0847 -6.286122,-0.0739 -5.969733,0.0241 0.519486,0.16093 0.575251,0.74237 0.575251,5.99784 0,6.22845 0.17176,6.97095 1.760927,7.61225 0.891579,0.3598 14.292402,0.3765 16.461455,0.0205 z m 76.072065,8e-5 c 2.61361,-0.50493 2.72892,-0.79533 2.92632,-7.36962 0.148,-4.92898 0.25047,-5.79295 0.70137,-5.91356 0.29043,-0.0777 -1.85189,-0.15839 -4.76071,-0.17937 -2.90882,-0.021 -8.234004,-0.10748 -11.833743,-0.19224 -3.599744,-0.0847 -6.286122,-0.0739 -5.969734,0.0241 0.518269,0.16056 0.575252,0.73097 0.575252,5.75859 0,6.01162 0.276058,7.25411 1.742966,7.84486 0.922588,0.37154 14.719049,0.39414 16.618279,0.0272 z m 1.42136,-20.170337 c 2.11591,-1.039066 3.66002,-2.631671 4.67194,-4.818669 0.66681,-1.441126 0.69216,-1.971512 0.69216,-14.480169 0,-12.8515 -0.008,-12.9998 -0.7494,-14.505305 -1.0359,-2.102551 -2.81672,-3.837355 -4.98123,-4.8525 l -1.82981,-0.858177 H 60.476676 15.435788 l -2.193381,1.079797 c -2.477652,1.219746 -3.9315696,2.806681 -4.8954025,5.343284 -0.5695884,1.499033 -0.6221983,2.662093 -0.6221983,13.755099 0,10.065051 0.085685,12.361245 0.5058571,13.555973 1.108561,3.152116 3.1290537,5.198239 6.1777287,6.2561 1.605276,0.557015 4.165125,0.585357 46.56827,0.515564 l 44.869618,-0.07385 z m 1.91259,-46.121836 c 0,-0.174757 -1.25565,-3.389453 -8.45344,-21.642342 -1.828637,-4.637246 -2.788952,-6.47117 -3.91535,-7.477196 C 96.687501,22.604188 93.754296,22.54075 60.952146,22.328261 L 25.266908,22.097095 24.020701,23.375366 C 21.202792,26.26578 17.589419,35.47652 13.08835,51.24269 c -0.152396,0.533807 -0.04569,0.592518 0.763335,0.41999 0.517273,-0.11031 2.737636,-0.300691 4.93414,-0.423068 l 3.993643,-0.222504 0.377312,-1.917838 c 0.981568,-4.989213 3.821827,-12.435074 5.507665,-14.438579 1.740147,-2.068047 -0.148887,-1.953406 32.649656,-1.981422 l 29.949994,-0.02558 1.105873,0.757757 c 2.016434,1.381683 3.274713,3.840474 5.599223,10.941402 l 2.187419,6.682126 3.17355,0.240426 c 1.74545,0.132234 3.76524,0.43062 4.48841,0.663081 1.59576,0.51295 1.80793,0.547514 1.80793,0.294519 z M 98.778905,50.811023 c 0,-0.557045 -2.673224,-9.027508 -3.646641,-11.554858 -0.527608,-1.369864 -1.487657,-3.107945 -2.133447,-3.862403 L 91.824656,34.022019 H 61.26482 30.704984 l -0.833797,0.833797 c -1.650628,1.650627 -4.60634,9.308503 -5.8633,15.191067 l -0.228275,1.068324 h 37.499645 c 22.764452,0 37.499648,-0.119526 37.499648,-0.304184 z"
       id="path13"
       transform="scale(0.26458333)" /></g></svg>
