<?xml version="1.0" encoding="UTF-8" standalone="no"?>
<!-- Created with Inkscape (http://www.inkscape.org/) -->

<svg
   viewBox="0 0 32 32"
   version="1.1"
   id="svg1"
   xml:space="preserve"
   inkscape:version="1.4 (e7c3feb1, 2024-10-09)"
   sodipodi:docname="wild-icon.svg"
   xmlns:inkscape="http://www.inkscape.org/namespaces/inkscape"
   xmlns:sodipodi="http://sodipodi.sourceforge.net/DTD/sodipodi-0.dtd"
   xmlns:xlink="http://www.w3.org/1999/xlink"
   xmlns="http://www.w3.org/2000/svg"
   xmlns:svg="http://www.w3.org/2000/svg"><sodipodi:namedview
     id="namedview1"
     pagecolor="#ffffff"
     bordercolor="#000000"
     borderopacity="0.25"
     inkscape:showpageshadow="2"
     inkscape:pageopacity="0.0"
     inkscape:pagecheckerboard="0"
     inkscape:deskcolor="#d1d1d1"
     inkscape:document-units="mm"
     inkscape:zoom="4.216578"
     inkscape:cx="79.804049"
     inkscape:cy="73.045014"
     inkscape:window-width="1792"
     inkscape:window-height="1067"
     inkscape:window-x="0"
     inkscape:window-y="25"
     inkscape:window-maximized="1"
     inkscape:current-layer="layer1" /><defs
     id="defs1" /><g
     inkscape:label="Layer 1"
     inkscape:groupmode="layer"
     id="layer1"><g
       inkscape:label="Layer 1"
       id="layer1-5"
       style="display:inline"
       transform="matrix(0.52030325,0,0,0.50366936,-0.45839392,-0.49419267)">
       <rect
         style="fill:none;stroke:#020a01;stroke-width:0.2;stroke-dasharray:none;stroke-opacity:1"
         id="rect1"
         width="29.926004"
         height="12.74507"
         x="1.0369986"
         y="14.555417"
         ry="3.6599262" /><path
         style="fill:#ffffff;stroke:#020a01;stroke-width:0.777287;stroke-dasharray:none;stroke-opacity:1"
         id="path1"
         sodipodi:type="arc"
         sodipodi:cx="6.8897605"
         sodipodi:cy="20.985313"
         sodipodi:rx="1.8693341"
         sodipodi:ry="2.1387289"
         sodipodi:start="3.1611652"
         sodipodi:end="3.1602799"
         sodipodi:arc-type="arc"
         d="M 5.0207844,20.943456 A 1.8693341,2.1387289 0 0 1 6.9259321,18.846985 1.8693341,2.1387289 0 0 1 8.7587526,21.026225 1.8693341,2.1387289 0 0 1 6.8544162,23.12366 1.8693341,2.1387289 0 0 1 5.0207528,20.945349"
         sodipodi:open="true" /><path
         style="fill:#ffffff;stroke:#020a01;stroke-width:0.777287;stroke-dasharray:none;stroke-opacity:1"
         id="path2"
         sodipodi:type="arc"
         sodipodi:cx="24.881428"
         sodipodi:cy="20.985313"
         sodipodi:rx="1.8693341"
         sodipodi:ry="2.1387289"
         sodipodi:start="3.1611652"
         sodipodi:end="3.1602799"
         sodipodi:arc-type="arc"
         d="m 23.012452,20.943456 a 1.8693341,2.1387289 0 0 1 1.905147,-2.096471 1.8693341,2.1387289 0 0 1 1.832821,2.17924 1.8693341,2.1387289 0 0 1 -1.904337,2.097435 1.8693341,2.1387289 0 0 1 -1.833663,-2.178311"
         sodipodi:open="true" /><path
         style="fill:#ffffff;stroke:#020a01;stroke-width:0.499999;stroke-dasharray:none;stroke-opacity:1"
         d="m 2.9984137,26.88599 -0.055036,3.135094 c 0,0 0.03664,1.013696 0.9159891,1.062549 0.8793496,0.04885 3.3830528,0.07328 4.1646968,-0.03665 0.7816439,-0.109919 0.9282021,-0.622874 0.9404153,-0.891564 0.012213,-0.268689 0.061066,-2.821245 0.061066,-2.821245"
         id="path3"
         sodipodi:nodetypes="ccsssc" /><path
         style="fill:#ffffff;stroke:#020a01;stroke-width:0.499999;stroke-dasharray:none;stroke-opacity:1"
         d="m 23.076138,27.212052 -0.02443,2.809032 c 0,0 0.03664,1.013696 0.915989,1.062549 0.87935,0.04885 3.383053,0.07328 4.164697,-0.03665 0.781644,-0.109919 0.928202,-0.622874 0.940415,-0.891564 0.01221,-0.268689 -0.05535,-3.27777 -0.05535,-3.27777"
         id="path5"
         sodipodi:nodetypes="ccsssc" /><path
         style="fill:none;stroke:#020a01;stroke-width:0.499999;stroke-dasharray:none;stroke-opacity:1"
         d="m 2.8755921,15.037113 c 0,0 2.2513052,-9.3113474 3.9164512,-9.3551669 1.6651461,-0.04382 18.6671647,-0.029213 18.6671647,-0.029213 0,0 0.671901,0.219098 1.22695,1.6797525 0.555048,1.4606545 2.854164,7.9821514 2.854164,7.9821514"
         id="path6"
         sodipodi:nodetypes="cscsc" /><path
         style="fill:none;stroke:#020a01;stroke-width:0.384598;stroke-dasharray:none;stroke-opacity:1"
         d="m 5.9341912,14.555417 c 0,0 1.0026166,-5.6928609 2.4106101,-5.7235225 1.4079937,-0.030662 15.7843507,-0.020441 15.7843507,-0.020441 0,0 0.568137,0.1533086 1.037468,1.1753659 0.469332,1.0220576 1.462499,4.5685976 1.462499,4.5685976"
         id="path7"
         sodipodi:nodetypes="cscsc" /><path
         style="fill:none;stroke:#020a01;stroke-width:0.499999;stroke-dasharray:none;stroke-opacity:1"
         d="m 11.199998,4.9202998 0.914286,-3.6210519 7.735336,0.01203 1.022557,3.6330821 z"
         id="path8" /><text
         xml:space="preserve"
         style="font-size:2.29408px;font-family:Sans;-inkscape-font-specification:'Sans, Normal';text-align:start;writing-mode:lr-tb;direction:ltr;text-anchor:start;fill:none;stroke:#020a01;stroke-width:0.462698;stroke-dasharray:none;stroke-dashoffset:0;stroke-opacity:1"
         x="24.139935"
         y="3.3617344"
         id="text8"
         transform="scale(0.81973455,1.2199071)"><tspan
           sodipodi:role="line"
           id="tspan12"
           style="font-size:2.29408px;text-align:center;text-anchor:middle;stroke:#020a01;stroke-width:0.462698;stroke-dasharray:none;stroke-dashoffset:0;stroke-opacity:1;paint-order:fill markers stroke"
           x="24.139935"
           y="3.3617344">T A X I</tspan></text><path
         style="fill:#ffd700;fill-opacity:1;stroke:#030a01;stroke-width:0.30948;stroke-dasharray:none;stroke-opacity:1"
         d="m 15.419645,98.901525 c -3.390827,-0.820934 -6.4209273,-3.879272 -7.2256154,-7.292948 -0.3668292,-1.556176 -0.3668292,-23.462718 0,-25.018894 0.616248,-2.614269 2.5976014,-5.151379 4.9983904,-6.400407 2.390505,-1.243677 -1.609407,-1.146405 47.252096,-1.149099 43.190274,-0.0024 43.924684,0.0028 45.169034,0.321091 3.39144,0.867385 6.00126,3.433046 7.08393,6.964089 0.28064,0.915287 0.30128,1.790337 0.30128,12.773773 0,10.983437 -0.0206,11.858486 -0.30128,12.773773 -0.52336,1.70688 -1.41068,3.191107 -2.64395,4.422537 -1.3334,1.331408 -2.64587,2.082696 -4.43998,2.541553 -1.24493,0.318398 -1.96,0.323294 -45.250918,0.309867 C 23.035631,99.135282 16.231754,99.09814 15.419645,98.901525 Z M 28.331572,88.587477 c 3.47362,-0.978687 6.061544,-4.595927 6.261116,-8.751399 0.147368,-3.068509 -0.797052,-5.632825 -2.805635,-7.617933 -1.769388,-1.748711 -3.58323,-2.546738 -5.741675,-2.526138 -6.273552,0.05988 -10.382215,7.21293 -7.849105,13.665047 0.401476,1.022606 1.641241,2.785179 2.475697,3.519697 1.012466,0.891208 2.848004,1.774516 4.056744,1.952209 1.150916,0.169194 2.455643,0.08174 3.602858,-0.241483 z m 67.795123,0.06115 c 1.971887,-0.500986 4.242625,-2.364222 5.289615,-4.340348 1.10687,-2.089146 1.5033,-5.269178 0.93601,-7.508409 -0.42448,-1.675519 -1.42584,-3.488339 -2.544615,-4.606643 -5.336298,-5.334065 -13.72797,-1.611348 -14.340841,6.361891 -0.359769,4.680456 2.692927,9.318336 6.651688,10.105734 0.495393,0.09853 1.048104,0.209626 1.228247,0.24687 0.435345,0.09001 1.968123,-0.05285 2.779896,-0.259095 z"
         id="path9"
         transform="scale(0.26458333)" /><path
         style="fill:#ffd700;fill-opacity:1;stroke:#030a01;stroke-width:0.282;stroke-dasharray:none;stroke-opacity:1"
         d="M 4.2246592,30.822288 C 3.6062356,30.790239 3.481052,30.733214 3.3335214,30.416351 3.2293583,30.19263 3.2289175,30.185442 3.2284961,28.703201 l -4.234e-4,-1.488485 0.5741205,0.02548 c 0.3157661,0.01402 1.2565652,0.03579 2.0906647,0.04837 0.8340992,0.01259 1.8187699,0.03461 2.1881568,0.04895 l 0.6716125,0.02606 -0.030724,1.433285 c -0.019889,0.927806 -0.048612,1.47647 -0.081447,1.555739 -0.0696,0.168032 -0.2680621,0.32556 -0.4831072,0.383464 -0.401905,0.108222 -2.5846034,0.156064 -3.9326896,0.0862 z"
         id="path10" /><path
         style="fill:#ffd700;fill-opacity:1;stroke:#030a01;stroke-width:0.282;stroke-dasharray:none;stroke-opacity:1"
         d="m 24.329703,30.822288 c -0.583029,-0.03022 -0.710811,-0.08261 -0.867063,-0.355541 l -0.107858,-0.1884 -0.01289,-1.525487 -0.01289,-1.525484 0.727832,0.02109 c 0.400308,0.01159 1.642835,0.04019 2.761172,0.06355 1.118335,0.02336 2.036228,0.04714 2.03976,0.05285 0.0035,0.0057 -0.0084,0.657238 -0.02653,1.447832 -0.03558,1.551918 -0.04298,1.598906 -0.281667,1.786654 -0.06316,0.04969 -0.194054,0.111668 -0.290865,0.137737 -0.398431,0.107286 -2.587094,0.154749 -3.929004,0.0852 z"
         id="path11" /><path
         style="fill:#ffd700;fill-opacity:1;stroke:#030a01;stroke-width:1.06583;stroke-dasharray:none;stroke-opacity:1"
         d="m 107.4307,51.549052 c -1.19402,-0.324606 -2.01032,-0.417769 -4.29886,-0.490621 -1.55374,-0.04946 -2.82497,-0.115486 -2.82497,-0.146723 0,-0.203989 -2.274309,-7.50007 -3.023679,-9.700095 C 95.84832,36.999072 94.985594,35.342036 93.450183,33.849552 93.051201,33.461724 92.442035,33.000175 92.09648,32.823886 91.478553,32.508643 90.968126,32.50407 61.128132,32.546428 l -30.340065,0.04307 -0.676062,0.361627 c -2.439183,1.304726 -4.841429,6.494037 -7.008199,15.139052 l -0.7121,2.841148 -3.580719,0.09889 c -1.969396,0.05439 -3.979546,0.183711 -4.466999,0.287379 -0.487454,0.103667 -0.913746,0.161021 -0.947316,0.127451 -0.03357,-0.03357 0.419143,-1.727791 1.006029,-3.764934 3.8028,-13.19993 7.502696,-22.092859 10.208921,-24.53777 l 0.631294,-0.570337 5.310954,-0.108677 c 2.921024,-0.05977 18.861104,-0.1088 35.422398,-0.108951 l 30.111446,-2.75e-4 1.007763,1.027799 c 1.389587,1.417216 1.961227,2.59613 4.907453,10.120838 2.06291,5.268703 5.39664,13.710696 6.99568,17.715176 0.35987,0.901211 0.45508,0.881104 -1.56791,0.331137 z"
         id="path12"
         transform="scale(0.26458333)" /><path
         style="fill:#ffd700;fill-opacity:1;stroke:#000000;stroke-width:0.403778;stroke-dasharray:none;paint-order:fill markers stroke"
         d=""
         id="path13"
         transform="scale(0.26458333)" /><path
         style="fill:#ffd700;fill-opacity:1;stroke:#000000;stroke-width:2.45669;stroke-dasharray:none;paint-order:fill markers stroke"
         d="M 16.536296,102.66924 C 10.814721,102.11086 6.3136672,98.251182 4.7425462,92.556026 L 4.4641711,91.546945 V 79.097567 66.648188 L 4.7474539,65.619885 C 5.4230784,63.1674 6.6451923,61.04194 8.3476566,59.358533 c 1.1056205,-1.093244 2.9064414,-2.367261 3.2332184,-2.287387 0.11021,0.02694 0.262129,-0.04989 0.337597,-0.170737 0.1782,-0.285343 1.970175,-0.93077 3.382141,-1.218167 1.05557,-0.214855 3.271707,-0.225919 45.248637,-0.225919 h 44.13871 l 1.20955,0.269528 c 5.04221,1.12357 8.89575,4.798678 10.26591,9.790575 l 0.34516,1.257513 v 12.323628 12.323627 l -0.33717,1.220518 c -0.90449,3.274249 -2.85902,6.031269 -5.54066,7.815568 -1.9477,1.29596 -3.93209,1.98657 -6.37336,2.21808 -1.59016,0.15079 -86.173677,0.14489 -87.721094,-0.006 z m 82.932981,-3.381535 c 5.561723,-0.09316 5.890443,-0.11169 6.727693,-0.379285 3.04737,-0.973977 5.44808,-3.391554 6.6233,-6.669843 l 0.29302,-0.817383 V 79.097567 66.773939 l -0.29017,-0.803444 c -1.20489,-3.336185 -3.39416,-5.568823 -6.5004,-6.629186 l -1.00601,-0.343417 -5.784557,-0.0944 c -8.182904,-0.133532 -68.420271,-0.124248 -76.582541,0.0118 -3.734814,0.06225 -7.186687,0.173362 -7.670829,0.246908 -1.6082,0.244301 -3.764766,1.588235 -5.092928,3.173822 -0.9244946,1.103682 -1.4768095,2.04781 -1.9219236,3.285338 l -0.369326,1.02682 -0.134293,6.246434 c -0.096158,4.472663 -0.095282,8.007858 0.00309,12.449379 l 0.1373799,6.202944 0.3334871,0.965558 c 0.9930864,2.875321 3.4162846,5.295047 6.4240136,6.414811 0.742784,0.276535 0.797413,0.278171 11.749493,0.351951 16.795645,0.113146 66.467645,0.118884 73.061504,0.0084 z"
         id="path14"
         transform="scale(0.26458333)" /><path
         style="fill:#ffd700;fill-opacity:1;stroke:#000000;stroke-width:0.164417;stroke-dasharray:none;paint-order:fill markers stroke"
         d="m 12.572924,54.187312 c 0.207108,-0.792554 0.446729,-1.687979 0.532491,-1.989832 l 0.155931,-0.548825 1.226895,-0.136134 c 1.404018,-0.155788 5.017041,-0.338331 6.753554,-0.341214 1.069535,-0.0018 1.171412,0.01534 1.121036,0.188368 -0.03048,0.104677 -0.186195,0.856424 -0.346041,1.670549 l -0.290629,1.480228 -2.788002,0.06035 c -3.049026,0.066 -4.014501,0.190257 -5.662447,0.728781 -0.55329,0.180806 -1.022489,0.328739 -1.042665,0.328739 -0.02018,0 0.132768,-0.648453 0.339877,-1.441007 z"
         id="path15"
         transform="scale(0.26458333)" /><path
         style="fill:#ffd700;fill-opacity:1;stroke:#000000;stroke-width:0.164417;stroke-dasharray:none;paint-order:fill markers stroke"
         d="m 109.27392,55.937226 c -1.67027,-0.835216 -3.55344,-1.249667 -6.23415,-1.372024 l -1.72673,-0.07881 -0.46404,-1.624188 c -0.25523,-0.893303 -0.44281,-1.645422 -0.41686,-1.671376 0.082,-0.08201 5.08499,0.186969 5.76738,0.310081 0.35889,0.06475 1.02792,0.219009 1.48673,0.342799 l 0.8342,0.225072 0.72844,2.056904 c 0.40065,1.131297 0.71042,2.071823 0.68838,2.090058 -0.022,0.01824 -0.32055,-0.107096 -0.66335,-0.278513 z"
         id="path16"
         transform="scale(0.26458333)" /><path
         style="fill:#ffd700;fill-opacity:1;stroke:#000000;stroke-width:0.0473239;stroke-dasharray:none;paint-order:fill markers stroke"
         d="m 107.97886,103.21854 c -0.89848,-0.0297 -4.13833,-0.10859 -6.98051,-0.16996 -4.847858,-0.10468 -8.01228,-0.17815 -8.021482,-0.18623 -0.0044,-0.004 2.411404,-0.0162 5.368423,-0.0275 2.957019,-0.0113 5.580649,-0.0342 5.830289,-0.051 1.36686,-0.0918 3.01494,-0.47806 4.19554,-0.98341 l 0.32771,-0.14027 0.0195,0.4438 c 0.0289,0.65575 0.0306,1.14877 0.004,1.1432 -0.0129,-0.003 -0.34746,-0.0156 -0.74344,-0.0287 z"
         id="path17"
         transform="scale(0.26458333)" /><path
         style="fill:#ffd700;fill-opacity:1;stroke:#000000;stroke-width:0.0379321;stroke-dasharray:none;paint-order:fill markers stroke"
         d="m 31.513639,103.19573 c -2.030852,-0.0847 -4.609702,-0.14759 -9.19566,-0.22439 -4.772926,-0.0799 -6.526906,-0.1248 -9.017495,-0.23074 l -1.038724,-0.0442 0.01691,-0.48834 c 0.0093,-0.2686 0.0217,-0.49314 0.02754,-0.49899 0.0058,-0.006 0.172105,0.0543 0.36946,0.1337 1.386884,0.55785 2.893951,0.8916 4.247851,0.94072 0.344994,0.0125 2.953149,0.0349 5.7959,0.0498 l 5.168638,0.0271 2.371051,0.17469 c 1.304077,0.0961 2.404922,0.1785 2.446321,0.18315 0.173363,0.0195 -0.480289,0.007 -1.191798,-0.0225 z"
         id="path18"
         transform="scale(0.26458333)" /></g><g
       id="layer2"
       inkscape:label="metro"
       transform="matrix(0.58477162,0,0,0.52096549,-1.3002434,15.43902)"><rect
         style="fill:none;stroke:#020a01;stroke-width:1;stroke-dasharray:none;paint-order:fill markers stroke"
         id="rect1-9"
         width="24.188971"
         height="20.786667"
         x="4.2878323"
         y="3.9149778"
         ry="4.2379379" /><rect
         style="fill:none;stroke:#020a01;stroke-width:0.267346;stroke-dasharray:none;paint-order:fill markers stroke"
         id="rect2"
         width="5.841928"
         height="1.5202836"
         x="13.42713"
         y="4.8941689"
         ry="0.76014179"
         rx="0.44788155" /><rect
         style="fill:none;stroke:#020a01;stroke-width:0.288934;stroke-dasharray:none;paint-order:fill markers stroke"
         id="rect3"
         width="17.433571"
         height="6.3534069"
         x="7.5893321"
         y="7.5131793"
         rx="2.3967586"
         ry="1.2614971" /><path
         style="fill:none;stroke:#020a01;stroke-width:0.314812;stroke-dasharray:none;paint-order:fill markers stroke"
         id="path3-4"
         sodipodi:type="arc"
         sodipodi:cx="9.8959503"
         sodipodi:cy="20.775742"
         sodipodi:rx="2.3578515"
         sodipodi:ry="1.6585407"
         sodipodi:start="2.7659156"
         sodipodi:end="2.7624946"
         sodipodi:arc-type="arc"
         d="m 7.7025367,21.384264 a 2.3578515,1.6585407 0 0 1 1.3264365,-2.150875 2.3578515,1.6585407 0 0 1 3.0589078,0.931192 2.3578515,1.6585407 0 0 1 -1.321204,2.152467 2.3578515,1.6585407 0 0 1 -3.0611679,-0.927509"
         sodipodi:open="true" /><path
         style="fill:none;stroke:#020a01;stroke-width:0.314812;stroke-dasharray:none;paint-order:fill markers stroke"
         id="path4"
         sodipodi:type="arc"
         sodipodi:cx="22.774614"
         sodipodi:cy="20.76298"
         sodipodi:rx="2.3578515"
         sodipodi:ry="1.6585407"
         sodipodi:start="2.7659156"
         sodipodi:end="2.7624946"
         sodipodi:arc-type="arc"
         d="m 20.581201,21.371502 a 2.3578515,1.6585407 0 0 1 1.326436,-2.150875 2.3578515,1.6585407 0 0 1 3.058908,0.931192 2.3578515,1.6585407 0 0 1 -1.321204,2.152467 2.3578515,1.6585407 0 0 1 -3.061168,-0.927509"
         sodipodi:open="true" /><path
         style="fill:none;stroke:#020a01;stroke-width:0.264583;stroke-dasharray:none;paint-order:fill markers stroke"
         d="m 2.2235064,31.63571 6.3039405,-6.578726 3.0816691,-0.03203 -1.031494,1.101969 11.416912,-0.03203 -1.15963,-1.044308 3.190585,-0.01281 6.422295,6.64734 H 27.30596 L 26.299121,30.59335 6.2836461,30.605494 5.1676318,31.73364 Z"
         id="path5-1" /><path
         style="fill:none;stroke:#020a01;stroke-width:0.264583;stroke-dasharray:none;paint-order:fill markers stroke"
         d="M 7.9060632,28.827243 8.8534374,27.891147 H 23.740746 l 0.924818,0.958654 z"
         id="path6-3" /><path
         style="fill:none;stroke:#020a01;stroke-width:0.20648;stroke-dasharray:none;paint-order:fill markers stroke"
         id="path8-7"
         sodipodi:type="arc"
         sodipodi:cx="18.694189"
         sodipodi:cy="2.0224986"
         sodipodi:rx="1.4961647"
         sodipodi:ry="1.1243945"
         sodipodi:start="2.7659156"
         sodipodi:end="2.7624946"
         sodipodi:arc-type="arc"
         d="M 17.302368,2.4350417 A 1.4961647,1.1243945 0 0 1 18.144052,0.97687321 1.4961647,1.1243945 0 0 1 20.085069,1.608167 1.4961647,1.1243945 0 0 1 19.246705,3.0674153 1.4961647,1.1243945 0 0 1 17.304254,2.4386176"
         sodipodi:open="true" /><path
         style="fill:none;stroke:#020a01;stroke-width:0.20648;stroke-dasharray:none;paint-order:fill markers stroke"
         id="path9-8"
         sodipodi:type="arc"
         sodipodi:cx="13.931688"
         sodipodi:cy="2.0224986"
         sodipodi:rx="1.4961647"
         sodipodi:ry="1.1243945"
         sodipodi:start="2.7659156"
         sodipodi:end="2.7624946"
         sodipodi:arc-type="arc"
         d="M 12.539867,2.4350417 A 1.4961647,1.1243945 0 0 1 13.381552,0.97687321 1.4961647,1.1243945 0 0 1 15.322569,1.608167 1.4961647,1.1243945 0 0 1 14.484204,3.0674153 1.4961647,1.1243945 0 0 1 12.541753,2.4386176"
         sodipodi:open="true" /><path
         style="fill:#000000;fill-opacity:1;stroke:#020a01;stroke-width:0.153788;stroke-dasharray:none;paint-order:fill markers stroke"
         d="M 30.3055,91.259653 C 25.529082,90.641534 21.037495,87.138783 19.228648,82.621402 18.145922,79.917423 18.223847,82.132717 18.223847,54.056391 V 28.758307 l 0.356857,-1.307195 c 0.735652,-2.694758 2.081279,-4.988295 3.972301,-6.770541 2.471812,-2.329628 5.135056,-3.520771 8.589012,-3.841457 2.125856,-0.197378 59.314303,-0.195583 61.545517,0.0019 3.543796,0.313709 6.326731,1.604919 8.863126,4.112263 1.78493,1.764491 3.02194,3.942837 3.73355,6.574697 0.28006,1.035794 0.29107,2.039271 0.29107,26.528386 0,23.759773 -0.0179,25.52169 -0.26973,26.502073 -1.22277,4.760895 -4.63414,8.502489 -9.147846,10.033346 -0.825744,0.280057 -2.042692,0.5825 -2.704333,0.672097 -1.456653,0.197256 -61.622063,0.193202 -63.147871,-0.0043 z m 10.371357,-6.201415 c 1.390475,-0.372746 3.279551,-1.362413 4.239284,-2.220916 0.502872,-0.449832 1.073807,-1.167492 1.38409,-1.73979 0.501506,-0.925003 0.528136,-1.051662 0.528136,-2.511997 0,-1.384905 -0.04427,-1.62804 -0.445062,-2.444302 -2.088596,-4.253689 -9.263754,-5.868636 -14.546193,-3.273981 -1.396375,0.685879 -2.799452,2.04215 -3.423055,3.308868 -0.447295,0.908585 -0.501582,1.160688 -0.501582,2.329287 0,1.147055 0.05933,1.435055 0.475904,2.31005 1.012995,2.127764 3.280212,3.688455 6.36765,4.383319 1.280726,0.288242 4.616705,0.209059 5.920828,-0.140538 z m 48.520032,-0.01482 c 1.690515,-0.409663 3.483388,-1.377574 4.576523,-2.470708 1.36192,-1.361919 1.805668,-2.360678 1.805668,-4.06407 0,-1.145978 -0.05945,-1.43266 -0.482015,-2.324503 -0.892427,-1.883494 -2.784038,-3.329952 -5.438813,-4.158902 -1.003815,-0.313439 -1.462567,-0.359729 -3.537118,-0.356912 -2.712234,0.0037 -3.639917,0.191458 -5.536358,1.120633 -1.362926,0.667777 -2.996991,2.193516 -3.517024,3.283874 -0.662412,1.388882 -0.693248,3.423987 -0.07043,4.647809 1.137809,2.23575 3.622192,3.89226 6.740098,4.494091 1.322235,0.255225 4.052913,0.169537 5.459465,-0.171312 z m 0.38447,-32.488904 c 2.699099,-0.764487 4.548998,-1.996285 5.250582,-3.496226 l 0.359665,-0.768939 0.0015,-7.92832 0.0015,-7.92832 -0.398044,-0.798769 c -0.93882,-1.883969 -3.744739,-3.330304 -7.214449,-3.718749 -1.091967,-0.12225 -8.917705,-0.157551 -26.989748,-0.121747 l -25.451871,0.05042 -1.27919,0.342045 c -1.888123,0.50487 -3.429315,1.27237 -4.401694,2.192006 -1.442521,1.364276 -1.393352,1.006272 -1.393352,10.145149 0,7.438981 0.01745,7.952764 0.287284,8.458326 0.786226,1.473079 1.977902,2.413299 3.987842,3.146365 2.354342,0.858675 1.256528,0.829077 29.711964,0.801088 l 26.297704,-0.02587 z M 71.974319,24.605182 c 0.24626,-0.127346 0.640749,-0.559874 0.876642,-0.961173 0.392102,-0.667041 0.428897,-0.86157 0.428897,-2.267513 0,-1.405943 -0.03679,-1.600473 -0.428897,-2.267513 -0.749158,-1.27446 -0.07066,-1.204632 -11.247672,-1.157558 l -9.910547,0.04174 -0.468663,0.449073 c -0.257765,0.24699 -0.591,0.766023 -0.740524,1.153408 -0.323955,0.83931 -0.355589,2.590763 -0.06209,3.437974 0.236683,0.683219 0.863369,1.471167 1.315571,1.654101 0.176065,0.07123 4.700739,0.133889 10.05483,0.13925 8.381515,0.0084 9.796951,-0.02244 10.182457,-0.22179 z"
         id="path12-8"
         transform="scale(0.26458333)" /><path
         style="fill:#000000;fill-opacity:1;stroke:#020a01;stroke-width:0.241834;stroke-dasharray:none;paint-order:fill markers stroke"
         d="M 13.340713,119.11355 9.8739408,118.98248 21.167383,107.19306 32.460824,95.403637 h 4.856612 4.856614 l -0.83075,0.906879 c -0.456912,0.498783 -1.262696,1.369387 -1.79063,1.934675 l -0.959884,1.027795 23.085071,-0.0056 23.085071,-0.0056 -2.055592,-1.918579 -2.055592,-1.918579 4.991485,-0.01052 4.991482,-0.01052 9.633139,9.975662 c 5.29823,5.48662 10.44385,10.81907 11.43473,11.84988 l 1.80159,1.87422 -5.06,-0.0183 -5.06,-0.0183 -1.81376,-2.03377 -1.813755,-2.03377 -38.093947,-0.003 -38.093947,-0.003 -2.166424,2.17651 -2.166425,2.1765 -1.214214,-0.0503 c -0.667817,-0.0277 -2.774261,-0.10929 -4.680985,-0.18137 z M 93.94245,108.8859 c -0.387892,-0.43228 -1.411969,-1.52053 -2.275728,-2.41834 l -1.570468,-1.63238 H 61.557863 33.019472 l -2.241512,2.23219 c -1.232831,1.2277 -2.241511,2.31596 -2.241511,2.41834 0,0.10238 14.875033,0.18615 33.055629,0.18615 h 33.055629 z"
         id="path13-3"
         transform="scale(0.26458333)" /><path
         style="fill:#000000;fill-opacity:1;stroke:#020a01;stroke-width:0.241834;stroke-dasharray:none;paint-order:fill markers stroke"
         d="m 51.313432,11.233839 c -1.881976,-0.379724 -3.388814,-1.6457933 -3.752254,-3.1527023 -0.09934,-0.4118738 0.03291,-0.9889541 0.387944,-1.6928402 0.993566,-1.9698397 3.984892,-2.9157807 6.772502,-2.1416549 1.113649,0.3092629 2.428525,1.4226223 2.832813,2.3986587 1.091043,2.634013 -2.573772,5.3284737 -6.241005,4.5885387 z"
         id="path14-8"
         transform="scale(0.26458333)" /><path
         style="fill:#000000;fill-opacity:1;stroke:#020a01;stroke-width:0.241834;stroke-dasharray:none;paint-order:fill markers stroke"
         d="M 69.312979,11.220552 C 66.95527,10.660531 65.658017,9.354183 65.658017,7.5399676 c 0,-1.0546191 0.09531,-1.2549692 0.997183,-2.0962306 3.001841,-2.8000871 9.038941,-1.3124863 9.038941,2.227284 0,2.346658 -3.424852,4.251737 -6.381162,3.549531 z"
         id="path15-1"
         transform="scale(0.26458333)" /><path
         style="fill:#000000;fill-opacity:1;stroke:#020a01;stroke-width:0.0162941;stroke-dasharray:none;paint-order:fill markers stroke"
         d="m 105.63808,70.846914 c 3.3e-4,-0.02688 0.004,-0.03591 0.008,-0.02006 0.004,0.01585 0.004,0.03785 -6e-4,0.04888 -0.004,0.01103 -0.008,-0.0019 -0.008,-0.02882 z"
         id="path16-5"
         transform="scale(0.26458333)" /><path
         style="fill:#c80101;fill-opacity:1;stroke:#000000;stroke-width:0.0982677;stroke-dasharray:none;paint-order:fill markers stroke"
         d="M 33.853792,91.125009 C 29.658803,90.979751 28.672249,90.866648 27.506213,90.39728 24.107181,89.029062 21.216952,86.335604 19.68398,83.107602 18.886913,81.429207 18.697167,80.687338 18.527594,78.586374 18.416021,77.204018 18.319022,65.447443 18.312041,52.460652 l -0.01269,-23.61235 0.673184,-2.006737 c 0.370251,-1.103705 0.92217,-2.418472 1.226485,-2.921704 1.726138,-2.854429 4.444116,-5.089531 7.585662,-6.237993 l 1.886407,-0.689617 31.239599,-0.07413 c 34.531073,-0.08194 33.626029,-0.120238 36.964256,1.564155 1.889392,0.953344 5.036906,3.985299 5.903166,5.68643 0.32596,0.640097 0.81342,1.80549 1.08325,2.589763 0.46691,1.357105 0.4906,2.672188 0.4906,27.237996 0,25.009548 -0.0161,25.864282 -0.51898,27.492304 -1.01169,3.275458 -3.80753,6.592105 -6.851808,8.128163 -3.196933,1.613079 -1.704943,1.537244 -31.711389,1.611832 -15.096961,0.03753 -29.684155,-0.0092 -32.415987,-0.103754 z m 7.18903,-6.092015 c 5.106623,-1.528283 7.342069,-5.676646 5.110746,-9.484113 -2.761368,-4.711917 -12.283121,-5.450622 -16.451572,-1.276327 -2.539481,2.543042 -2.649138,5.528664 -0.29906,8.142514 1.999,2.223371 5.288834,3.284534 9.287113,2.995643 0.790793,-0.05714 1.849541,-0.227111 2.352773,-0.377717 z m 50.123039,-0.570569 c 1.704986,-0.779672 3.782718,-2.710556 4.255892,-3.9551 0.370355,-0.974111 0.317258,-3.132164 -0.101734,-4.13496 -0.845796,-2.024271 -2.969273,-3.675076 -5.777465,-4.491441 -2.319724,-0.674363 -6.347837,-0.427277 -8.415117,0.516185 -1.6361,0.746681 -3.530284,2.402657 -4.204662,3.675892 -0.237737,0.448849 -0.424424,1.463806 -0.436517,2.373187 -0.0177,1.331032 0.106204,1.794897 0.76338,2.85793 0.91394,1.478365 2.665881,2.820799 4.626321,3.544946 1.148621,0.424279 1.923478,0.498851 4.523102,0.435313 2.802009,-0.06849 3.311084,-0.156266 4.7668,-0.821952 z m 0.148533,-32.366458 c 1.936011,-0.907104 2.781916,-1.574593 3.514099,-2.772929 0.57437,-0.940047 0.586853,-1.130078 0.586853,-8.933764 0,-7.890207 -0.0064,-7.983784 -0.609824,-8.980696 C 94.011174,30.09634 92.36468,29.011566 90.072919,28.290556 L 88.228996,27.71044 H 61.433523 34.63805 l -1.711176,0.617685 c -1.979886,0.714681 -3.496776,1.68449 -4.276425,2.734089 -0.524486,0.706088 -0.551159,1.085608 -0.624672,8.888255 -0.04224,4.482869 -0.01113,8.413203 0.06913,8.734071 0.215677,0.862268 1.6459,2.381185 2.793342,2.966565 2.517547,1.284358 1.886578,1.260067 31.32953,1.206118 l 27.57973,-0.05053 z M 71.963895,24.725831 c 1.863726,-0.708587 2.014186,-5.579751 0.202297,-6.549444 -0.319899,-0.171204 -4.155654,-0.269169 -10.539203,-0.269169 H 51.59073 l -0.625937,0.666279 c -0.503862,0.536337 -0.645522,1.012932 -0.726371,2.443758 -0.112879,1.997639 0.356426,3.287597 1.340212,3.683781 0.765582,0.30831 19.579371,0.331194 20.385261,0.0248 z"
         id="path1-3"
         transform="scale(0.26458333)" /><path
         style="fill:#000000;fill-opacity:0;stroke:#000000;stroke-width:1.98803;stroke-dasharray:none;paint-order:fill markers stroke"
         d="m 11.539987,118.84114 -1.138846,-0.1568 11.072778,-11.5666 11.072777,-11.566602 4.509482,-0.0012 c 2.480215,-6.61e-4 4.509482,0.09071 4.509482,0.203046 0,0.112337 -0.705832,0.902715 -1.568515,1.756397 -0.862684,0.853682 -1.568516,1.64406 -1.568516,1.756397 0,0.112336 10.496307,0.204247 23.325125,0.204247 h 23.325124 l -1.947558,-1.960644 -1.947557,-1.960644 4.699003,0.0062 4.699003,0.0062 11.110321,11.526263 c 6.11067,6.33944 11.15586,11.64939 11.21154,11.79989 0.0693,0.18744 -1.03473,0.21915 -3.50514,0.10068 -1.9835,-0.0951 -4.15603,-0.17296 -4.82786,-0.17296 -1.19438,0 -1.25873,-0.0431 -2.89963,-1.94368 l -1.678138,-1.94367 -38.304053,-0.017 -38.304052,-0.017 -2.079088,2.09135 -2.079089,2.09136 -3.273873,-0.0393 c -1.80063,-0.0216 -3.786354,-0.10982 -4.41272,-0.19606 z m 83.047593,-9.28129 c -0.04649,-0.20182 -1.057689,-1.37821 -2.247118,-2.6142 l -2.162596,-2.24724 H 61.451213 32.724563 l -2.114933,2.26049 c -1.163213,1.24327 -2.114932,2.35979 -2.114932,2.48117 0,0.21792 9.141295,0.30055 46.878567,0.42373 16.454695,0.0537 19.286383,0.009 19.214315,-0.30395 z"
         id="path2-5"
         transform="scale(0.26458333)" /><path
         style="fill:#c80101;fill-opacity:1;stroke:#000000;stroke-width:0.060882;paint-order:fill markers stroke"
         d="M 68.669946,10.904715 C 66.738296,10.215699 65.82953,9.1045163 65.82953,7.4316308 c 0,-0.9657493 6.08e-4,-0.9669692 0.898993,-1.8031834 1.852797,-1.7245778 4.828919,-2.0061955 7.061169,-0.6681681 2.557577,1.5330313 2.24737,4.3172035 -0.63469,5.6964757 -1.213717,0.580851 -3.238042,0.692767 -4.485056,0.24796 z"
         id="path11-4"
         transform="scale(0.26458333)" /><path
         style="fill:#f9f201;fill-opacity:1;stroke:#000000;stroke-width:0.438425;stroke-dasharray:none;paint-order:fill markers stroke"
         d="M 50.58519,10.877473 C 49.20613,10.365031 47.999934,9.2233689 47.738945,8.1835067 47.437286,6.9815999 48.367855,5.577167 50.012664,4.7519685 c 1.06059,-0.5320967 1.214543,-0.5637929 2.738422,-0.5637929 1.443852,0 1.712196,0.047898 2.536738,0.452798 1.039338,0.5103771 1.97993,1.5045354 2.237805,2.3652466 0.387824,1.2944401 -0.632576,2.8577142 -2.390707,3.6626128 -1.257007,0.575477 -3.309249,0.669588 -4.549732,0.20864 z"
         id="path17-3"
         transform="scale(0.26458333)" /><path
         style="fill:#f9f201;fill-opacity:1;stroke:#000000;stroke-width:0.502677;stroke-dasharray:none;paint-order:fill markers stroke"
         d="M 69.270189,10.815237 C 67.620209,10.428759 66.564331,9.5825014 66.251908,8.3961663 65.852004,6.8776473 66.092641,6.2644949 67.4074,5.4519295 69.000709,4.46721 70.60431,4.1678573 72.164547,4.5638874 c 2.915001,0.739906 3.951261,3.2212137 2.086161,4.9952755 -0.806362,0.7670021 -1.416185,1.0191521 -3.409047,1.4095721 -0.274387,0.05375 -0.981549,-0.01532 -1.571472,-0.153498 z"
         id="path18-6"
         transform="scale(0.26458333)" /></g><g
       id="g5"
       transform="matrix(0.01285747,0,0,0.01177592,16.650294,16.750244)">
	
	<g
   id="g4"
   transform="matrix(1.9327589,0,0,2.1598891,-560.59888,-686.03306)"
   style="stroke:#000000;stroke-opacity:1">
		<path
   d="m 295.641,471.08 c 4.878,-11.994 13.824,-17.009 26.624,-15.883 4.537,0.4 9.137,0.066 14.156,0.066 0,41.173 0,82.186 0,123.471 -8.115,0 -16.193,0.512 -24.176,-0.138 -8.721,-0.71 -12.848,-7.606 -16.603,-14.495 -10e-4,-31.008 -10e-4,-62.014 -10e-4,-93.021 z"
   id="path2-9"
   style="stroke:#000000;stroke-opacity:1" />
		<path
   d="m 904.359,564.101 c -1.905,2.895 -3.215,6.626 -5.85,8.487 -3.975,2.809 -8.711,5.432 -13.416,6.11 -7.026,1.012 -14.304,0.264 -21.759,0.264 0,-41.377 0,-82.278 0,-123.523 7.971,0 15.725,-0.602 23.345,0.156 9.181,0.912 14.171,7.584 17.68,15.485 0,31.007 0,62.013 0,93.021 z"
   id="path3-1"
   style="stroke:#000000;stroke-opacity:1" />
		<path
   d="m 392.845,827.489 c -14.483,-0.714 -25.576,-6.214 -33.729,-17.299 -6.128,-8.333 -7.896,-17.834 -7.889,-27.923 0.038,-80.863 0.022,-161.727 0.022,-242.588 0,-40.697 0.156,-81.393 -0.048,-122.088 -0.156,-30.916 8.565,-58.866 28.417,-82.57 22.871,-27.309 52.364,-43.354 88.24,-44.434 37.316,-1.124 74.691,-0.36 112.037,-0.378 47.039,-0.022 94.078,0.19 141.114,-0.092 21.599,-0.128 42.041,4.217 60.951,14.447 21.515,11.642 38.37,28.279 50.2,49.864 10.749,19.61 15.257,40.655 15.247,62.882 -0.044,120.5 -0.376,241.005 0.252,361.505 0.142,26.878 -14.391,47.085 -41.867,48.941 0,12.582 0.22,25.224 -0.1,37.854 -0.142,5.564 -0.752,11.274 -2.241,16.613 -4.119,14.775 -18.652,26.724 -34.079,27.296 -16.885,0.624 -33.839,0.736 -50.712,-0.032 -18.464,-0.842 -34.625,-16.953 -35.933,-35.533 -0.914,-12.978 -0.464,-26.05 -0.616,-39.08 -0.026,-2.271 -0.002,-4.545 -0.002,-7.182 -55.241,0 -110.088,0 -165.594,0 0,12.78 0.264,25.414 -0.118,38.032 -0.174,5.726 -0.976,11.61 -2.623,17.083 -4.391,14.581 -18.762,26.16 -34.007,26.718 -16.887,0.62 -33.84,0.728 -50.714,-0.032 -18.576,-0.836 -34.923,-17.609 -35.831,-36.213 -0.644,-13.182 -0.288,-26.414 -0.374,-39.624 -0.013,-1.904 -0.003,-3.81 -0.003,-6.167 z M 806.206,414.41 c -138.175,0 -275.972,0 -413.599,0 0,82.81 0,165.168 0,247.557 138.061,0 275.718,0 413.599,0 0,-82.627 0,-164.861 0,-247.557 z M 516.982,331.318 c 0,13.914 0,27.511 0,41.163 55.141,0 109.822,0 164.673,0 0,-13.868 0,-27.441 0,-41.163 -55.153,0 -109.848,0 -164.673,0 z M 392.649,745.802 c 1.056,23.305 20.104,41.215 42.775,40.217 22.565,-0.994 40.629,-20.17 39.752,-42.201 -0.926,-23.273 -20.12,-41.293 -42.791,-40.173 -22.906,1.132 -40.736,20.05 -39.736,42.157 z M 764.82,786.06 c 22.639,-0.056 41.165,-18.612 41.243,-41.311 0.076,-22.593 -18.648,-41.209 -41.383,-41.145 -22.775,0.064 -41.423,18.708 -41.277,41.269 0.144,22.667 18.825,41.243 41.417,41.187 z"
   id="path4-7"
   style="stroke:none;stroke-opacity:1" />
	<path
   style="fill:#388e3c;fill-opacity:1;stroke:#000000;stroke-width:2.71748;stroke-dasharray:none;paint-order:fill markers stroke"
   d="m 25.12011,120.49791 c -0.564475,-0.15169 -1.366919,-0.4754 -1.783208,-0.71937 -1.112457,-0.65194 -2.667597,-2.38598 -3.24522,-3.61855 -0.501304,-1.06971 -0.506028,-1.11878 -0.599004,-6.22024 l -0.09372,-5.14203 -1.318215,-0.22185 c -3.821924,-0.64323 -6.372982,-3.33462 -6.845057,-7.2216 C 11.109002,96.311178 11.066388,83.200633 11.109934,58.665463 11.183384,17.281985 11.073564,20.636064 12.495181,16.356524 14.423299,10.552244 19.039831,5.3771399 24.834416,2.5243164 27.46756,1.2279522 29.845109,0.56097453 32.857668,0.27353974 34.27169,0.13862505 43.693147,0.09474152 61.758047,0.13892675 c 29.641647,0.072501 27.35047,-0.0209378 31.246669,1.27430215 7.162534,2.3810898 12.856454,8.0633696 15.212984,15.1818851 1.28797,3.890662 1.21871,1.510966 1.25716,43.194927 0.0325,35.254459 0.0139,37.739538 -0.28964,38.704211 -0.50743,1.612588 -1.38264,3.106418 -2.35028,4.011528 -1.34894,1.26178 -2.33115,1.69265 -5.20124,2.28167 l -0.42172,0.0865 v 4.28173 c 0,2.35495 -0.0848,4.73604 -0.18842,5.29131 -0.56971,3.05266 -2.972827,5.5329 -5.987192,6.17936 -0.56803,0.12182 -3.056585,0.17327 -6.509193,0.13456 -5.215497,-0.0585 -5.656245,-0.0898 -6.585619,-0.46776 -2.144389,-0.87215 -3.700566,-2.48704 -4.551396,-4.72312 -0.358573,-0.94237 -0.409916,-1.54776 -0.498425,-5.87691 l -0.09868,-4.82631 H 60.350435 43.907804 l -0.102883,4.54517 c -0.132077,5.83487 -0.449577,7.0507 -2.351625,9.00527 -1.088977,1.11905 -2.118811,1.73261 -3.521231,2.0979 -1.538006,0.4006 -11.305923,0.38742 -12.811955,-0.0173 z m 5.887105,-24.498029 c 5.165814,-2.453234 6.351876,-8.767066 2.42105,-12.888127 -4.604674,-4.827519 -12.991532,-2.29266 -14.144463,4.275051 -0.517016,2.945198 0.961596,6.329129 3.502447,8.015648 1.66206,1.103213 2.840405,1.420717 4.98212,1.342425 1.618058,-0.05915 1.960514,-0.13792 3.238846,-0.744997 z m 65.745539,0.02007 c 6.139786,-2.915773 6.301656,-11.544053 0.271685,-14.482387 -3.386234,-1.650072 -7.190525,-1.055114 -9.749953,1.524807 -4.281199,4.315478 -2.471128,11.452211 3.396821,13.392954 0.837115,0.276864 1.476501,0.341042 2.88485,0.289558 1.606667,-0.05873 1.96478,-0.139946 3.196597,-0.724932 z m 4.834086,-47.66311 V 24.084703 H 60.35233 19.117819 V 48.356836 72.628968 H 60.35233 101.58684 Z M 76.846134,12.089209 V 7.9657578 H 60.35233 43.858525 V 12.089209 16.21266 H 60.35233 76.846134 Z"
   id="path1-5"
   transform="matrix(5.0330202,0,0,5.1247965,295.64101,290.209)" /><path
   style="fill:#388e3c;fill-opacity:1;stroke:#000000;stroke-width:1.96157;stroke-dasharray:none;paint-order:fill markers stroke"
   d="M 112.83262,44.278155 V 32.233716 l 2.28026,0.0501 c 2.81344,0.06181 3.54486,0.250025 4.43645,1.141613 1.38902,1.389025 1.34276,1.010713 1.34276,10.98058 v 8.925161 l -0.47684,0.755366 c -0.58534,0.927233 -1.87578,1.771935 -3.11199,2.037054 -0.51036,0.109453 -1.72504,0.199005 -2.69929,0.199005 h -1.77135 z"
   id="path5-5"
   transform="matrix(5.0330202,0,0,5.1247965,295.64101,290.209)" /><path
   style="fill:#078b07;fill-opacity:1;stroke:#060c06;stroke-width:1.96157;stroke-dasharray:none;stroke-opacity:1;paint-order:fill markers stroke"
   d="M 3.7485919,56.195145 C 2.2054205,56.03646 1.455285,55.545076 0.5307812,54.087286 L 0,53.25033 V 44.376652 C 0,34.474519 -0.04553113,34.842994 1.3424403,33.512539 2.4967228,32.40609 3.5094921,32.203902 7.3566116,32.311878 l 0.702861,0.01973 v 11.876303 11.876303 l -0.8695929,0.119192 c -0.8750893,0.119944 -2.226082,0.116701 -3.4412878,-0.0083 z"
   id="path6-4"
   transform="matrix(5.0330202,0,0,5.1247965,295.64101,290.209)" /></g>
</g><g
       id="layer2-5"
       inkscape:label="Layer 2"
       transform="matrix(0.53679325,0,0,0.51737067,15.810192,-0.25903366)"><path
         style="display:inline;fill:none;stroke:#040e04;stroke-width:0.813;stroke-dasharray:none;stroke-opacity:1;paint-order:fill markers stroke"
         d="m 1.3363091,25.551849 c 0,0 1.2958148,-0.445437 2.6321239,0.688401 1.336309,1.133838 2.3891586,1.012357 3.0775602,0.526426 0.6884017,-0.485931 1.0528496,-0.850379 1.0528496,-0.850379 0,0 1.0123554,-0.688402 1.9842162,-0.485931 0.971861,0.202471 0.688402,-0.161977 1.741252,0.526425 1.052849,0.688401 1.376803,1.862733 2.875089,1.052849 1.498286,-0.809884 1.295815,-1.093343 2.146193,-1.417297 0.850378,-0.323954 1.295815,-0.323954 2.267676,0 0.971861,0.323954 1.093344,1.052849 1.903228,1.295816 0.809884,0.242964 1.336309,0.566918 2.713112,-0.607414 1.376803,-1.174333 2.7941,-0.931367 2.7941,-0.931367 0,0 1.093346,0.04049 2.510642,1.457792 0,0 0.647908,0.566919 1.133839,0.283459"
         id="path2-3" /><path
         style="fill:#000000;fill-opacity:1;stroke:#000000;stroke-width:0.312999;stroke-opacity:1;paint-order:fill markers stroke"
         d="m 7.8153833,24.579988 c 0,0 2.6321237,-1.174333 4.5758467,0.283459 1.943722,1.457792 2.065204,0.76939 2.065204,0.76939 0,0 1.376804,-1.174332 2.186688,-1.376803 0.809884,-0.202471 1.619768,-0.28346 2.186687,-0.161977 0.566919,0.121483 1.862734,0.688402 2.227182,1.174332 0.364448,0.485931 0.931367,0.890873 1.53878,0.364448 0.607413,-0.526425 1.214827,-1.174332 1.660263,-1.174332 0.445436,0 2.551136,-4.656835 2.551136,-4.656835 0,0 0.526423,-0.607413 0.04049,-1.012355 -0.485932,-0.404942 -9.273176,-6.803028 -9.273176,-6.803028 0,0 -1.174333,-1.093343 -2.672618,-0.121482 -1.498286,0.971861 -9.3136695,6.762533 -9.3136695,6.762533 0,0 -0.566919,0.28346 -0.1619768,1.174332 0.4049421,0.890873 2.3891586,4.778318 2.3891586,4.778318 z"
         id="path1-33" /><path
         style="display:inline;fill:none;stroke:#040e04;stroke-width:0.813;stroke-dasharray:none;stroke-opacity:1;paint-order:fill markers stroke"
         d="m 1.3363091,25.551849 c 0,0 1.2958148,-0.445437 2.6321239,0.688401 1.336309,1.133838 2.3891586,1.012357 3.0775602,0.526426 0.6884017,-0.485931 1.0528496,-0.850379 1.0528496,-0.850379 0,0 0.8714673,-0.615318 1.9842162,-0.485931 1.002237,0.116537 0.586438,0.02763 1.741252,0.526425 1.089008,0.470369 1.376803,1.862733 2.875089,1.052849 1.498286,-0.809884 1.295815,-1.093343 2.146193,-1.417297 0.850378,-0.323954 1.295815,-0.323954 2.267676,0 0.971861,0.323954 1.093344,1.052849 1.903228,1.295816 0.809884,0.242964 1.336309,0.566918 2.713112,-0.607414 1.376803,-1.174333 2.7941,-0.931367 2.7941,-0.931367 0,0 1.093346,0.04049 2.510642,1.457792 0,0 0.647908,0.566919 1.133839,0.283459"
         id="path3-8"
         inkscape:label="path3"
         sodipodi:nodetypes="csscsssssssccc" /><path
         style="display:inline;fill:none;stroke:#040e04;stroke-width:0.813;stroke-dasharray:none;stroke-opacity:1;paint-order:fill markers stroke"
         d="m 1.3363091,28.197684 c 0,0 1.2958148,-0.445437 2.6321239,0.688401 1.336309,1.133838 2.3891586,1.012357 3.0775602,0.526426 0.6884017,-0.485931 1.0528496,-0.850379 1.0528496,-0.850379 0,0 0.8714673,-0.615318 1.9842162,-0.485931 1.002237,0.116537 0.586438,0.02763 1.741252,0.526425 1.089008,0.470369 1.376803,1.862733 2.875089,1.052849 1.498286,-0.809884 1.295815,-1.093343 2.146193,-1.417297 0.850378,-0.323954 1.295815,-0.323954 2.267676,0 0.971861,0.323954 1.093344,1.052849 1.903228,1.295816 0.809884,0.242964 1.336309,0.566918 2.713112,-0.607414 1.376803,-1.174333 2.7941,-0.931367 2.7941,-0.931367 0,0 1.093346,0.04049 2.510642,1.457792 0,0 0.647908,0.566919 1.133839,0.283459"
         id="path4-5"
         inkscape:label="path3"
         sodipodi:nodetypes="csscsssssssccc" /><path
         style="fill:none;stroke:#040e04;stroke-width:0.913;stroke-dasharray:none;stroke-opacity:1;paint-order:fill markers stroke"
         d="m 9.4099188,14.589021 c 0,0 4.5225972,-3.209584 5.3614652,-3.647255 0.838869,-0.437671 1.458902,-0.510616 2.297771,-0.109418 0.838869,0.401198 3.552975,2.181653 5.522357,3.806852 L 22.038991,6.7766952 c 0,0 -0.117855,-1.5026585 -1.59105,-1.5615863 -1.473195,-0.058928 -2.416039,0 -2.416039,0 V 3.0642448 c 0,0 -0.559814,-0.7071334 -1.119628,0.029464 l -0.02946,2.0919362 -1.708906,0.029464 0.08839,-3.8597699 c 0,0 -0.559814,-0.88391673 -1.237483,-0.029464 l 0.02946,3.8597699 -2.533894,0.058928 c 0,0 -1.149092,0.1178555 -1.325875,1.620514 -0.176784,1.5026585 -0.7845882,7.723934 -0.7845872,7.723934 z"
         id="path5-8"
         sodipodi:nodetypes="cssccscccccccccscc" /><path
         style="fill:none;stroke:#040e04;stroke-width:0.409;stroke-dasharray:none;stroke-opacity:1;paint-order:fill markers stroke"
         d="m 11.461454,7.4838284 c 0,0 2.445503,-0.8249888 2.445503,-0.3241027 0,0.5008862 0.235711,1.2964112 -0.117856,1.4731944 -0.353566,0.1767835 -2.033008,0 -2.033008,0 0,0 -0.324103,-0.058928 -0.324103,-0.3535666 0,-0.294639 0.02946,-0.7955251 0.02946,-0.7955251 z"
         id="path6-9" /><path
         style="fill:none;stroke:#040e04;stroke-width:0.408;stroke-dasharray:none;stroke-opacity:1;paint-order:fill markers stroke"
         d="m 20.589066,7.4836334 c 0,0 -2.439401,-0.8254226 -2.439401,-0.3242731 0,0.5011496 -0.235123,1.2970929 0.117562,1.473969 0.352683,0.1768765 2.027935,0 2.027935,0 0,0 0.323294,-0.058959 0.323294,-0.3537525 0,-0.2947939 -0.02939,-0.7959434 -0.02939,-0.7959434 z"
         id="path7-6" /><path
         style="fill:none;stroke:#040e04;stroke-width:0.413;stroke-dasharray:none;stroke-opacity:1;paint-order:fill markers stroke"
         d="m 14.93621,6.9101993 2.192471,0.039151 c 0,0 0.195757,0.039151 0.215332,0.1761805 0.01958,0.1370296 0.01958,1.3311434 0.01958,1.3311434 0,0 0,0.2544834 -0.254484,0.2544834 h -2.114168 c 0,0 -0.195757,-0.03844 -0.195757,-0.2733476 0,-0.2349076 -0.09788,-1.3710061 0.13703,-1.5276111 z"
         id="path8-0"
         sodipodi:nodetypes="ccccscscc" /><path
         style="fill:#000000;fill-opacity:1;stroke:#000000;stroke-width:0;stroke-dasharray:none;stroke-opacity:0;paint-order:fill markers stroke"
         d="m 37.849992,50.920837 c 0,-0.490285 1.947411,-19.859652 2.310244,-22.978191 0.358355,-3.080038 0.598923,-3.883172 1.466889,-4.897195 1.16915,-1.365889 1.181486,-1.368367 7.596016,-1.525845 l 5.792389,-0.142203 -0.07659,-7.870085 c -0.07553,-7.7613943 -0.07103,-7.8700851 0.326072,-7.8700851 0.39717,0 0.40165,0.1095329 0.328599,8.0334751 l -0.07406,8.033475 0.957812,-0.131282 c 0.526797,-0.07221 2.800702,-0.131283 5.05312,-0.131283 h 4.095309 l 0.05418,-4.462935 c 0.0407,-3.352056 0.116826,-4.483784 0.305846,-4.546697 0.196427,-0.06538 0.251654,0.925179 0.251628,4.513268 l -3.6e-5,4.597029 h 5.989596 c 5.738657,0 6.023333,0.01808 6.794913,0.431568 0.972189,0.520994 1.320798,0.898948 1.923164,2.085054 0.425857,0.838545 0.516423,1.692762 1.21667,11.475795 0.41611,5.813396 0.821897,11.699288 0.901746,13.079759 l 0.145185,2.509946 -0.986069,-0.818091 c -2.284142,-1.895043 -8.398043,-6.067622 -12.562529,-8.573605 -4.70416,-2.830735 -6.599716,-3.580722 -9.050078,-3.580722 -3.414205,0 -5.678198,1.222186 -17.576626,9.488512 -2.574039,1.788289 -4.793319,3.340489 -4.931734,3.44933 -0.181659,0.142849 -0.251662,0.09584 -0.251662,-0.168992 z M 52.345734,33.263972 c 0.989197,-0.49427 1.24768,-1.400651 1.100085,-3.857502 -0.134322,-2.235938 -0.329647,-3.103552 -0.760354,-3.377421 -0.131486,-0.08361 -0.873255,-0.152763 -1.648375,-0.153683 -1.464477,-0.0017 -3.590703,0.42914 -6.577714,1.332972 l -1.745801,0.528255 -0.138163,1.658627 c -0.166934,2.004024 -0.03197,2.717931 0.631678,3.341399 0.626192,0.588278 1.606216,0.719776 5.615373,0.753469 2.058691,0.0173 3.180156,-0.05467 3.523271,-0.226116 z m 13.489093,-0.145229 c 0.368022,-0.368023 0.402659,-0.671098 0.402659,-3.52327 0,-2.803648 -0.03908,-3.159688 -0.384713,-3.505324 -0.51717,-0.51717 -2.095486,-0.659674 -6.457998,-0.583084 l -3.520769,0.06181 -0.304496,0.603989 c -0.230414,0.457045 -0.304495,1.321263 -0.304495,3.552202 0,4.109927 -0.451604,3.796334 5.467107,3.796334 4.431606,0 4.723043,-0.023 5.102705,-0.40266 z m 11.620825,-0.0685 c 0.356593,-0.186077 0.741637,-0.512626 0.855652,-0.725663 0.114013,-0.213037 0.207297,-1.332839 0.207297,-2.488448 v -2.101109 l -2.164295,-0.626496 c -3.352732,-0.97051 -4.663649,-1.231452 -6.202742,-1.234675 -1.985057,-0.0042 -2.103956,0.11906 -2.341268,2.426295 -0.33954,3.301146 -0.06544,4.50857 1.145142,5.044329 0.221463,0.09801 2.078729,0.148026 4.12726,0.111146 3.00273,-0.05406 3.850258,-0.132626 4.372954,-0.405379 z"
         id="path16-4"
         transform="scale(0.26458333)" /><path
         style="fill:#000000;fill-opacity:1;stroke:#000000;stroke-width:0;stroke-dasharray:none;stroke-opacity:0;paint-order:fill markers stroke"
         d="m 66.238248,29.178264 c -2.13e-4,-2.172109 -0.04824,-2.669455 -0.288146,-2.983884 -0.06996,-0.09169 -0.17686,-0.186681 -0.280575,-0.24931 -0.309698,-0.187014 -0.855753,-0.309462 -1.691319,-0.379264 -1.013791,-0.08469 -2.366588,-0.09952 -4.983673,-0.05465 -0.384008,0.0066 -0.825497,0.01468 -0.981086,0.018 -0.155589,0.0033 -0.452172,0.0087 -0.659073,0.01197 -0.2069,0.0033 -0.424936,0.0073 -0.484523,0.0091 -0.05959,0.0017 -0.245803,0.0049 -0.413811,0.007 l -0.30547,0.0039 0.0015,-1.97043 0.0015,-1.970429 0.120379,-0.01641 c 0.322319,-0.04393 0.427407,-0.05359 0.806536,-0.07419 0.13999,-0.0076 0.785387,-0.0088 4.657147,-0.0089 4.490635,-3.9e-5 4.494635,-2.8e-5 4.494635,0.012 0,0.012 0.004,0.01204 1.357269,0.01204 h 1.357268 v 2.1939 2.193899 l -0.01354,7.2e-5 c -0.02406,1.27e-4 -0.164937,0.03485 -0.231606,0.05708 -0.417045,0.139099 -0.615379,0.439474 -0.741393,1.122828 -0.09774,0.530044 -0.239486,1.931833 -0.269131,2.661597 l -0.0041,0.100817 h -0.724375 -0.724375 z"
         id="path17-2"
         transform="scale(0.26458333)" /><path
         style="fill:#000000;fill-opacity:1;stroke:#000000;stroke-width:0;stroke-dasharray:none;stroke-opacity:0;paint-order:fill markers stroke"
         d="m 64.597656,25.669531 c -0.155269,-0.0031 -0.38225,-0.0072 -1.380859,-0.025 -0.298633,-0.0053 -0.690625,-0.01235 -0.871094,-0.0156 -0.350227,-0.0063 -3.792157,-0.06763 -3.890625,-0.06933 l -0.05859,-0.001 -0.0012,-0.01193 c -9.01e-4,-0.0092 8.79e-4,-0.01295 0.0078,-0.0164 0.0063,-0.0031 0.119802,-0.0063 0.376167,-0.01062 0.201953,-0.0034 0.460351,-0.0078 0.574219,-0.0099 1.915757,-0.03455 3.312508,-0.0236 4.24414,0.03329 0.466292,0.02847 0.882431,0.07231 1.164063,0.122621 0.04887,0.0087 0.06417,0.0084 -0.164063,0.0039 z"
         id="path18-3"
         transform="scale(0.26458333)" /><rect
         style="fill:#ffffff;fill-opacity:1;stroke:#000000;stroke-width:0.723873;stroke-linecap:round;stroke-linejoin:bevel;stroke-dasharray:none;stroke-opacity:0;paint-order:fill markers stroke"
         id="rect23"
         width="2.3291292"
         height="1.1968603"
         x="0.81354654"
         y="18.462084"
         rx="0.12702513"
         transform="matrix(0.83978519,-0.54291881,0.59521606,0.8035657,0,0)"
         ry="0.1154862" /><rect
         style="fill:#ffffff;fill-opacity:1;stroke:#000000;stroke-width:0.694115;stroke-linecap:round;stroke-linejoin:bevel;stroke-dasharray:none;stroke-opacity:0;paint-order:fill markers stroke"
         id="rect24"
         width="2.2264178"
         height="1.1512481"
         x="22.972248"
         y="0.19632922"
         rx="0.12142349"
         transform="matrix(0.82327034,0.56764949,-0.61249678,0.79047308,0,0)"
         ry="0.11108503" /></g></g></svg>
